<svg width="1920" height="1080" viewBox="0 0 1920 1080" fill="none" xmlns="http://www.w3.org/2000/svg">
<rect width="1920" height="1080" fill="black"/>
<path d="M1110 510L1080 480H1200V510H1170V600H1140V510H1110Z" fill="white"/>
<path fill-rule="evenodd" clip-rule="evenodd" d="M967.5 600V480H1057.5L1087.5 510V600H967.5ZM1057.5 510H997.5V570H1057.5V510Z" fill="white"/>
<path fill-rule="evenodd" clip-rule="evenodd" d="M832.5 600V510L862.5 480H952.5V600H922.5V570H862.5V600H832.5ZM922.5 510H862.5V540H922.5V510Z" fill="white"/>
<path d="M748 570V598H722V482H835.172L809.172 508H750H748V510V540V542H750H808V568H750H748V570Z" stroke="white" stroke-width="4"/>
</svg>
