<svg width="4000" height="4000" viewBox="0 0 4000 4000" fill="none" xmlns="http://www.w3.org/2000/svg">
<g clip-path="url(#clip0_933_1613)">
<rect width="4000" height="4000" fill="white"/>
<path d="M3432.29 3927.27H3290.87L3573.71 3644.42L3644.42 3715.13L3573.71 3785.84L3785.84 3997.98L3715.13 4068.69L3503 3856.55L3432.29 3927.27Z" stroke="black" stroke-width="15"/>
<path d="M3025.7 4192.43L3020.4 4187.13L3015.1 4192.43L3020.4 4197.73L3025.7 4192.43ZM3308.55 4475.27L3303.24 4480.58L3308.55 4485.88L3313.85 4480.58L3308.55 4475.27ZM3237.84 3980.3V3972.8H3234.73L3232.53 3975L3237.84 3980.3ZM3379.26 3980.3L3384.56 3975L3382.36 3972.8H3379.26V3980.3ZM3591.39 4192.43L3596.69 4197.73L3602 4192.43L3596.69 4187.13L3591.39 4192.43ZM3167.12 4192.43L3161.82 4187.13L3156.52 4192.43L3161.82 4197.73L3167.12 4192.43ZM3308.55 4051.01L3313.85 4045.71L3308.55 4040.4L3303.24 4045.71L3308.55 4051.01ZM3308.55 4333.85L3303.24 4339.16L3308.55 4344.46L3313.85 4339.16L3308.55 4333.85ZM3449.97 4192.43L3455.27 4197.73L3460.57 4192.43L3455.27 4187.13L3449.97 4192.43ZM3020.4 4197.73L3303.24 4480.58L3313.85 4469.97L3031.01 4187.13L3020.4 4197.73ZM3232.53 3975L3020.4 4187.13L3031.01 4197.73L3243.14 3985.6L3232.53 3975ZM3379.26 3972.8H3237.84V3987.8H3379.26V3972.8ZM3596.69 4187.13L3384.56 3975L3373.95 3985.6L3586.09 4197.73L3596.69 4187.13ZM3313.85 4480.58L3596.69 4197.73L3586.09 4187.13L3303.24 4469.97L3313.85 4480.58ZM3172.43 4197.73L3313.85 4056.31L3303.24 4045.71L3161.82 4187.13L3172.43 4197.73ZM3313.85 4328.55L3172.43 4187.13L3161.82 4197.73L3303.24 4339.16L3313.85 4328.55ZM3444.66 4187.13L3303.24 4328.55L3313.85 4339.16L3455.27 4197.73L3444.66 4187.13ZM3303.24 4056.31L3444.66 4197.73L3455.27 4187.13L3313.85 4045.71L3303.24 4056.31Z" fill="black"/>
<path d="M3980.3 3379.26H3972.8V3382.36L3974.99 3384.56L3980.3 3379.26ZM4192.43 3591.39L4187.13 3596.69L4192.43 3602L4197.73 3596.69L4192.43 3591.39ZM3980.3 3237.84L3974.99 3232.53L3972.8 3234.73V3237.84H3980.3ZM4192.43 3025.7L4197.73 3020.4L4192.43 3015.1L4187.13 3020.4L4192.43 3025.7ZM4475.27 3308.55L4480.57 3313.85L4485.88 3308.55L4480.57 3303.24L4475.27 3308.55ZM4404.56 3379.26L4399.26 3384.56L4404.56 3389.86L4409.86 3384.56L4404.56 3379.26ZM4333.85 3308.55L4339.15 3303.24L4333.85 3297.94L4328.55 3303.24L4333.85 3308.55ZM4192.43 3449.97L4187.13 3444.67L4181.82 3449.97L4187.13 3455.27L4192.43 3449.97ZM4263.14 3520.68L4268.44 3525.98L4273.75 3520.68L4268.44 3515.38L4263.14 3520.68ZM4051.01 3308.55L4045.7 3303.24L4040.4 3308.55L4045.7 3313.85L4051.01 3308.55ZM4192.43 3167.13L4197.73 3161.82L4192.43 3156.52L4187.13 3161.82L4192.43 3167.13ZM4121.72 3379.26L4116.41 3384.56L4121.72 3389.86L4127.02 3384.56L4121.72 3379.26ZM4263.14 3237.84L4268.44 3243.14L4273.75 3237.84L4268.44 3232.53L4263.14 3237.84ZM3974.99 3384.56L4187.13 3596.69L4197.73 3586.09L3985.6 3373.95L3974.99 3384.56ZM3972.8 3237.84V3379.26H3987.8V3237.84H3972.8ZM4187.13 3020.4L3974.99 3232.53L3985.6 3243.14L4197.73 3031.01L4187.13 3020.4ZM4480.57 3303.24L4197.73 3020.4L4187.13 3031.01L4469.97 3313.85L4480.57 3303.24ZM4409.86 3384.56L4480.57 3313.85L4469.97 3303.24L4399.26 3373.95L4409.86 3384.56ZM4328.55 3313.85L4399.26 3384.56L4409.86 3373.95L4339.15 3303.24L4328.55 3313.85ZM4197.73 3455.27L4339.15 3313.85L4328.55 3303.24L4187.13 3444.67L4197.73 3455.27ZM4268.44 3515.38L4197.73 3444.67L4187.13 3455.27L4257.84 3525.98L4268.44 3515.38ZM4197.73 3596.69L4268.44 3525.98L4257.84 3515.38L4187.13 3586.09L4197.73 3596.69ZM4056.31 3313.85L4197.73 3172.43L4187.13 3161.82L4045.7 3303.24L4056.31 3313.85ZM4127.02 3373.95L4056.31 3303.24L4045.7 3313.85L4116.41 3384.56L4127.02 3373.95ZM4257.84 3232.53L4116.41 3373.95L4127.02 3384.56L4268.44 3243.14L4257.84 3232.53ZM4187.13 3172.43L4257.84 3243.14L4268.44 3232.53L4197.73 3161.82L4187.13 3172.43Z" fill="black"/>
<path d="M3644.42 3573.71L3927.26 3856.56L3997.98 3785.84L3927.26 3715.13L4068.69 3573.71L3997.98 3503L3856.55 3644.42L3785.84 3573.71L3927.26 3432.29V3290.87L3644.42 3573.71Z" stroke="black" stroke-width="15"/>
<path d="M3043.38 3538.36H2901.96L3184.8 3255.51L3255.51 3326.22L3184.8 3396.94L3396.93 3609.07L3326.22 3679.78L3114.09 3467.65L3043.38 3538.36Z" stroke="black" stroke-width="15"/>
<path d="M2636.79 3803.52L2631.49 3798.22L2626.19 3803.52L2631.49 3808.83L2636.79 3803.52ZM2919.64 4086.36L2914.33 4091.67L2919.64 4096.97L2924.94 4091.67L2919.64 4086.36ZM2848.93 3591.39V3583.89H2845.82L2843.62 3586.09L2848.93 3591.39ZM2990.35 3591.39L2995.65 3586.09L2993.45 3583.89H2990.35V3591.39ZM3202.48 3803.52L3207.78 3808.83L3213.09 3803.52L3207.78 3798.22L3202.48 3803.52ZM2778.22 3803.52L2772.91 3798.22L2767.61 3803.52L2772.91 3808.83L2778.22 3803.52ZM2919.64 3662.1L2924.94 3656.8L2919.64 3651.49L2914.33 3656.8L2919.64 3662.1ZM2919.64 3944.94L2914.33 3950.25L2919.64 3955.55L2924.94 3950.25L2919.64 3944.94ZM3061.06 3803.52L3066.36 3808.83L3071.67 3803.52L3066.36 3798.22L3061.06 3803.52ZM2631.49 3808.83L2914.33 4091.67L2924.94 4081.06L2642.1 3798.22L2631.49 3808.83ZM2843.62 3586.09L2631.49 3798.22L2642.1 3808.83L2854.23 3596.69L2843.62 3586.09ZM2990.35 3583.89H2848.93V3598.89H2990.35V3583.89ZM3207.78 3798.22L2995.65 3586.09L2985.05 3596.69L3197.18 3808.83L3207.78 3798.22ZM2924.94 4091.67L3207.78 3808.83L3197.18 3798.22L2914.33 4081.06L2924.94 4091.67ZM2783.52 3808.83L2924.94 3667.4L2914.33 3656.8L2772.91 3798.22L2783.52 3808.83ZM2924.94 3939.64L2783.52 3798.22L2772.91 3808.83L2914.33 3950.25L2924.94 3939.64ZM3055.76 3798.22L2914.33 3939.64L2924.94 3950.25L3066.36 3808.83L3055.76 3798.22ZM2914.33 3667.4L3055.76 3808.83L3066.36 3798.22L2924.94 3656.8L2914.33 3667.4Z" fill="black"/>
<path d="M2389.31 4192.43H2381.81V4195.54L2384 4197.73L2389.31 4192.43ZM2601.44 4404.56L2596.14 4409.87L2601.44 4415.17L2606.74 4409.87L2601.44 4404.56ZM2389.31 4051.01L2384 4045.71L2381.81 4047.9V4051.01H2389.31ZM2601.44 3838.88L2606.74 3833.57L2601.44 3828.27L2596.14 3833.57L2601.44 3838.88ZM2884.28 4121.72L2889.58 4127.02L2894.89 4121.72L2889.58 4116.42L2884.28 4121.72ZM2813.57 4192.43L2808.27 4197.73L2813.57 4203.04L2818.87 4197.73L2813.57 4192.43ZM2742.86 4121.72L2748.16 4116.42L2742.86 4111.11L2737.56 4116.42L2742.86 4121.72ZM2601.44 4263.14L2596.14 4257.84L2590.83 4263.14L2596.14 4268.44L2601.44 4263.14ZM2672.15 4333.85L2677.45 4339.16L2682.76 4333.85L2677.45 4328.55L2672.15 4333.85ZM2460.02 4121.72L2454.71 4116.42L2449.41 4121.72L2454.71 4127.02L2460.02 4121.72ZM2601.44 3980.3L2606.74 3975L2601.44 3969.69L2596.14 3975L2601.44 3980.3ZM2530.73 4192.43L2525.42 4197.73L2530.73 4203.04L2536.03 4197.73L2530.73 4192.43ZM2672.15 4051.01L2677.45 4056.31L2682.76 4051.01L2677.45 4045.71L2672.15 4051.01ZM2384 4197.73L2596.14 4409.87L2606.74 4399.26L2394.61 4187.13L2384 4197.73ZM2381.81 4051.01V4192.43H2396.81V4051.01H2381.81ZM2596.14 3833.57L2384 4045.71L2394.61 4056.31L2606.74 3844.18L2596.14 3833.57ZM2889.58 4116.42L2606.74 3833.57L2596.14 3844.18L2878.98 4127.02L2889.58 4116.42ZM2818.87 4197.73L2889.58 4127.02L2878.98 4116.42L2808.27 4187.13L2818.87 4197.73ZM2737.56 4127.02L2808.27 4197.73L2818.87 4187.13L2748.16 4116.42L2737.56 4127.02ZM2606.74 4268.44L2748.16 4127.02L2737.56 4116.42L2596.14 4257.84L2606.74 4268.44ZM2677.45 4328.55L2606.74 4257.84L2596.14 4268.44L2666.85 4339.16L2677.45 4328.55ZM2606.74 4409.87L2677.45 4339.16L2666.85 4328.55L2596.14 4399.26L2606.74 4409.87ZM2465.32 4127.02L2606.74 3985.6L2596.14 3975L2454.71 4116.42L2465.32 4127.02ZM2536.03 4187.13L2465.32 4116.42L2454.71 4127.02L2525.42 4197.73L2536.03 4187.13ZM2666.85 4045.71L2525.42 4187.13L2536.03 4197.73L2677.45 4056.31L2666.85 4045.71ZM2596.14 3985.6L2666.85 4056.31L2677.45 4045.71L2606.74 3975L2596.14 3985.6Z" fill="black"/>
<path d="M3838.88 2601.44L3833.57 2596.14L3828.27 2601.44L3833.57 2606.74L3838.88 2601.44ZM4121.72 2884.28L4116.42 2889.59L4121.72 2894.89L4127.02 2889.59L4121.72 2884.28ZM4051.01 2389.31V2381.81H4047.9L4045.71 2384.01L4051.01 2389.31ZM4192.43 2389.31L4197.73 2384.01L4195.54 2381.81H4192.43V2389.31ZM4404.56 2601.44L4409.87 2606.74L4415.17 2601.44L4409.87 2596.14L4404.56 2601.44ZM3980.3 2601.44L3975 2596.14L3969.69 2601.44L3975 2606.74L3980.3 2601.44ZM4121.72 2460.02L4127.02 2454.72L4121.72 2449.41L4116.42 2454.72L4121.72 2460.02ZM4121.72 2742.86L4116.42 2748.17L4121.72 2753.47L4127.02 2748.17L4121.72 2742.86ZM4263.14 2601.44L4268.44 2606.74L4273.75 2601.44L4268.44 2596.14L4263.14 2601.44ZM3833.57 2606.74L4116.42 2889.59L4127.02 2878.98L3844.18 2596.14L3833.57 2606.74ZM4045.71 2384.01L3833.57 2596.14L3844.18 2606.74L4056.31 2394.61L4045.71 2384.01ZM4192.43 2381.81H4051.01V2396.81H4192.43V2381.81ZM4409.87 2596.14L4197.73 2384.01L4187.13 2394.61L4399.26 2606.74L4409.87 2596.14ZM4127.02 2889.59L4409.87 2606.74L4399.26 2596.14L4116.42 2878.98L4127.02 2889.59ZM3985.6 2606.74L4127.02 2465.32L4116.42 2454.72L3975 2596.14L3985.6 2606.74ZM4127.02 2737.56L3985.6 2596.14L3975 2606.74L4116.42 2748.17L4127.02 2737.56ZM4257.84 2596.14L4116.42 2737.56L4127.02 2748.17L4268.44 2606.74L4257.84 2596.14ZM4116.42 2465.32L4257.84 2606.74L4268.44 2596.14L4127.02 2454.72L4116.42 2465.32Z" fill="black"/>
<path d="M3591.39 2990.35H3583.89V2993.46L3586.09 2995.65L3591.39 2990.35ZM3803.52 3202.48L3798.22 3207.78L3803.52 3213.09L3808.82 3207.78L3803.52 3202.48ZM3591.39 2848.93L3586.09 2843.62L3583.89 2845.82V2848.93H3591.39ZM3803.52 2636.8L3808.82 2631.49L3803.52 2626.19L3798.22 2631.49L3803.52 2636.8ZM4086.36 2919.64L4091.67 2924.94L4096.97 2919.64L4091.67 2914.34L4086.36 2919.64ZM4015.65 2990.35L4010.35 2995.65L4015.65 3000.96L4020.96 2995.65L4015.65 2990.35ZM3944.94 2919.64L3950.25 2914.34L3944.94 2909.03L3939.64 2914.34L3944.94 2919.64ZM3803.52 3061.06L3798.22 3055.76L3792.91 3061.06L3798.22 3066.36L3803.52 3061.06ZM3874.23 3131.77L3879.53 3137.07L3884.84 3131.77L3879.53 3126.47L3874.23 3131.77ZM3662.1 2919.64L3656.8 2914.34L3651.49 2919.64L3656.8 2924.94L3662.1 2919.64ZM3803.52 2778.22L3808.82 2772.91L3803.52 2767.61L3798.22 2772.91L3803.52 2778.22ZM3732.81 2990.35L3727.51 2995.65L3732.81 3000.96L3738.11 2995.65L3732.81 2990.35ZM3874.23 2848.93L3879.53 2854.23L3884.84 2848.93L3879.53 2843.62L3874.23 2848.93ZM3586.09 2995.65L3798.22 3207.78L3808.82 3197.18L3596.69 2985.05L3586.09 2995.65ZM3583.89 2848.93V2990.35H3598.89V2848.93H3583.89ZM3798.22 2631.49L3586.09 2843.62L3596.69 2854.23L3808.82 2642.1L3798.22 2631.49ZM4091.67 2914.34L3808.82 2631.49L3798.22 2642.1L4081.06 2924.94L4091.67 2914.34ZM4020.96 2995.65L4091.67 2924.94L4081.06 2914.34L4010.35 2985.05L4020.96 2995.65ZM3939.64 2924.94L4010.35 2995.65L4020.96 2985.05L3950.25 2914.34L3939.64 2924.94ZM3808.82 3066.36L3950.25 2924.94L3939.64 2914.34L3798.22 3055.76L3808.82 3066.36ZM3879.53 3126.47L3808.82 3055.76L3798.22 3066.36L3868.93 3137.07L3879.53 3126.47ZM3808.82 3207.78L3879.53 3137.07L3868.93 3126.47L3798.22 3197.18L3808.82 3207.78ZM3667.4 2924.94L3808.82 2783.52L3798.22 2772.91L3656.8 2914.34L3667.4 2924.94ZM3738.11 2985.05L3667.4 2914.34L3656.8 2924.94L3727.51 2995.65L3738.11 2985.05ZM3868.93 2843.62L3727.51 2985.05L3738.11 2995.65L3879.53 2854.23L3868.93 2843.62ZM3798.22 2783.52L3868.93 2854.23L3879.53 2843.62L3808.82 2772.91L3798.22 2783.52Z" fill="black"/>
<path d="M3255.51 3184.8L3538.36 3467.65L3609.07 3396.94L3538.36 3326.23L3679.78 3184.8L3609.07 3114.09L3467.65 3255.51L3396.94 3184.8L3538.36 3043.38V2901.96L3255.51 3184.8Z" stroke="black" stroke-width="15"/>
<path d="M2654.47 3149.45H2513.05L2795.89 2866.61L2866.6 2937.32L2795.89 3008.03L3008.03 3220.16L2937.31 3290.87L2725.18 3078.74L2654.47 3149.45Z" stroke="black" stroke-width="15"/>
<path d="M2247.89 3414.61L2242.58 3409.31L2237.28 3414.61L2242.58 3419.92L2247.89 3414.61ZM2530.73 3697.46L2525.43 3702.76L2530.73 3708.06L2536.03 3702.76L2530.73 3697.46ZM2460.02 3202.48V3194.98H2456.91L2454.72 3197.18L2460.02 3202.48ZM2601.44 3202.48L2606.74 3197.18L2604.55 3194.98H2601.44V3202.48ZM2813.57 3414.61L2818.88 3419.92L2824.18 3414.61L2818.88 3409.31L2813.57 3414.61ZM2389.31 3414.61L2384 3409.31L2378.7 3414.61L2384 3419.92L2389.31 3414.61ZM2530.73 3273.19L2536.03 3267.89L2530.73 3262.59L2525.43 3267.89L2530.73 3273.19ZM2530.73 3556.03L2525.43 3561.34L2530.73 3566.64L2536.03 3561.34L2530.73 3556.03ZM2672.15 3414.61L2677.45 3419.92L2682.76 3414.61L2677.45 3409.31L2672.15 3414.61ZM2242.58 3419.92L2525.43 3702.76L2536.03 3692.15L2253.19 3409.31L2242.58 3419.92ZM2454.72 3197.18L2242.58 3409.31L2253.19 3419.92L2465.32 3207.78L2454.72 3197.18ZM2601.44 3194.98H2460.02V3209.98H2601.44V3194.98ZM2818.88 3409.31L2606.74 3197.18L2596.14 3207.78L2808.27 3419.92L2818.88 3409.31ZM2536.03 3702.76L2818.88 3419.92L2808.27 3409.31L2525.43 3692.15L2536.03 3702.76ZM2394.61 3419.92L2536.03 3278.5L2525.43 3267.89L2384 3409.31L2394.61 3419.92ZM2536.03 3550.73L2394.61 3409.31L2384 3419.92L2525.43 3561.34L2536.03 3550.73ZM2666.85 3409.31L2525.43 3550.73L2536.03 3561.34L2677.45 3419.92L2666.85 3409.31ZM2525.43 3278.5L2666.85 3419.92L2677.45 3409.31L2536.03 3267.89L2525.43 3278.5Z" fill="black"/>
<path d="M2000.4 3803.52H1992.9V3806.63L1995.09 3808.83L2000.4 3803.52ZM2212.53 4015.65L2207.23 4020.96L2212.53 4026.26L2217.83 4020.96L2212.53 4015.65ZM2000.4 3662.1L1995.09 3656.8L1992.9 3658.99V3662.1H2000.4ZM2212.53 3449.97L2217.83 3444.67L2212.53 3439.36L2207.23 3444.67L2212.53 3449.97ZM2495.37 3732.81L2500.68 3738.11L2505.98 3732.81L2500.68 3727.51L2495.37 3732.81ZM2424.66 3803.52L2419.36 3808.83L2424.66 3814.13L2429.97 3808.83L2424.66 3803.52ZM2353.95 3732.81L2359.25 3727.51L2353.95 3722.2L2348.65 3727.51L2353.95 3732.81ZM2212.53 3874.23L2207.23 3868.93L2201.92 3874.23L2207.23 3879.54L2212.53 3874.23ZM2283.24 3944.94L2288.54 3950.25L2293.85 3944.94L2288.54 3939.64L2283.24 3944.94ZM2071.11 3732.81L2065.81 3727.51L2060.5 3732.81L2065.81 3738.11L2071.11 3732.81ZM2212.53 3591.39L2217.83 3586.09L2212.53 3580.78L2207.23 3586.09L2212.53 3591.39ZM2141.82 3803.52L2136.52 3808.83L2141.82 3814.13L2147.12 3808.83L2141.82 3803.52ZM2283.24 3662.1L2288.54 3667.4L2293.85 3662.1L2288.54 3656.8L2283.24 3662.1ZM1995.09 3808.83L2207.23 4020.96L2217.83 4010.35L2005.7 3798.22L1995.09 3808.83ZM1992.9 3662.1V3803.52H2007.9V3662.1H1992.9ZM2207.23 3444.67L1995.09 3656.8L2005.7 3667.4L2217.83 3455.27L2207.23 3444.67ZM2500.68 3727.51L2217.83 3444.67L2207.23 3455.27L2490.07 3738.11L2500.68 3727.51ZM2429.97 3808.83L2500.68 3738.11L2490.07 3727.51L2419.36 3798.22L2429.97 3808.83ZM2348.65 3738.11L2419.36 3808.83L2429.97 3798.22L2359.25 3727.51L2348.65 3738.11ZM2217.83 3879.54L2359.25 3738.11L2348.65 3727.51L2207.23 3868.93L2217.83 3879.54ZM2288.54 3939.64L2217.83 3868.93L2207.23 3879.54L2277.94 3950.25L2288.54 3939.64ZM2217.83 4020.96L2288.54 3950.25L2277.94 3939.64L2207.23 4010.35L2217.83 4020.96ZM2076.41 3738.11L2217.83 3596.69L2207.23 3586.09L2065.81 3727.51L2076.41 3738.11ZM2147.12 3798.22L2076.41 3727.51L2065.81 3738.11L2136.52 3808.83L2147.12 3798.22ZM2277.94 3656.8L2136.52 3798.22L2147.12 3808.83L2288.54 3667.4L2277.94 3656.8ZM2207.23 3596.69L2277.94 3667.4L2288.54 3656.8L2217.83 3586.09L2207.23 3596.69Z" fill="black"/>
<path d="M1664.52 3997.98L1947.37 4280.82L2018.08 4210.11L1947.37 4139.4L2088.79 3997.98L2018.08 3927.27L1876.66 4068.69L1805.94 3997.98L1947.37 3856.56V3715.13L1664.52 3997.98Z" stroke="black" stroke-width="15"/>
<path d="M3856.55 1947.37H3715.13L3997.98 1664.52L4068.69 1735.23L3997.98 1805.95L4210.11 2018.08L4139.4 2088.79L3927.26 1876.66L3856.55 1947.37Z" stroke="black" stroke-width="15"/>
<path d="M3449.97 2212.53L3444.67 2207.23L3439.36 2212.53L3444.67 2217.84L3449.97 2212.53ZM3732.81 2495.37L3727.51 2500.68L3732.81 2505.98L3738.11 2500.68L3732.81 2495.37ZM3662.1 2000.4V1992.9H3658.99L3656.8 1995.1L3662.1 2000.4ZM3803.52 2000.4L3808.83 1995.1L3806.63 1992.9H3803.52V2000.4ZM4015.65 2212.53L4020.96 2217.84L4026.26 2212.53L4020.96 2207.23L4015.65 2212.53ZM3591.39 2212.53L3586.09 2207.23L3580.78 2212.53L3586.09 2217.84L3591.39 2212.53ZM3732.81 2071.11L3738.11 2065.81L3732.81 2060.5L3727.51 2065.81L3732.81 2071.11ZM3732.81 2353.95L3727.51 2359.26L3732.81 2364.56L3738.11 2359.26L3732.81 2353.95ZM3874.23 2212.53L3879.54 2217.84L3884.84 2212.53L3879.54 2207.23L3874.23 2212.53ZM3444.67 2217.84L3727.51 2500.68L3738.11 2490.07L3455.27 2207.23L3444.67 2217.84ZM3656.8 1995.1L3444.67 2207.23L3455.27 2217.84L3667.4 2005.7L3656.8 1995.1ZM3803.52 1992.9H3662.1V2007.9H3803.52V1992.9ZM4020.96 2207.23L3808.83 1995.1L3798.22 2005.7L4010.35 2217.84L4020.96 2207.23ZM3738.11 2500.68L4020.96 2217.84L4010.35 2207.23L3727.51 2490.07L3738.11 2500.68ZM3596.69 2217.84L3738.11 2076.41L3727.51 2065.81L3586.09 2207.23L3596.69 2217.84ZM3738.11 2348.65L3596.69 2207.23L3586.09 2217.84L3727.51 2359.26L3738.11 2348.65ZM3868.93 2207.23L3727.51 2348.65L3738.11 2359.26L3879.54 2217.84L3868.93 2207.23ZM3727.51 2076.41L3868.93 2217.84L3879.54 2207.23L3738.11 2065.81L3727.51 2076.41Z" fill="black"/>
<path d="M3202.48 2601.44H3194.98V2604.55L3197.18 2606.74L3202.48 2601.44ZM3414.61 2813.57L3409.31 2818.88L3414.61 2824.18L3419.92 2818.88L3414.61 2813.57ZM3202.48 2460.02L3197.18 2454.72L3194.98 2456.91V2460.02H3202.48ZM3414.61 2247.89L3419.92 2242.58L3414.61 2237.28L3409.31 2242.58L3414.61 2247.89ZM3697.45 2530.73L3702.76 2536.03L3708.06 2530.73L3702.76 2525.43L3697.45 2530.73ZM3626.74 2601.44L3621.44 2606.74L3626.74 2612.05L3632.05 2606.74L3626.74 2601.44ZM3556.03 2530.73L3561.34 2525.43L3556.03 2520.12L3550.73 2525.43L3556.03 2530.73ZM3414.61 2672.15L3409.31 2666.85L3404.01 2672.15L3409.31 2677.45L3414.61 2672.15ZM3485.32 2742.86L3490.63 2748.17L3495.93 2742.86L3490.63 2737.56L3485.32 2742.86ZM3273.19 2530.73L3267.89 2525.43L3262.58 2530.73L3267.89 2536.03L3273.19 2530.73ZM3414.61 2389.31L3419.92 2384.01L3414.61 2378.7L3409.31 2384.01L3414.61 2389.31ZM3343.9 2601.44L3338.6 2606.74L3343.9 2612.05L3349.2 2606.74L3343.9 2601.44ZM3485.32 2460.02L3490.63 2465.32L3495.93 2460.02L3490.63 2454.72L3485.32 2460.02ZM3197.18 2606.74L3409.31 2818.88L3419.92 2808.27L3207.78 2596.14L3197.18 2606.74ZM3194.98 2460.02V2601.44H3209.98V2460.02H3194.98ZM3409.31 2242.58L3197.18 2454.72L3207.78 2465.32L3419.92 2253.19L3409.31 2242.58ZM3702.76 2525.43L3419.92 2242.58L3409.31 2253.19L3692.15 2536.03L3702.76 2525.43ZM3632.05 2606.74L3702.76 2536.03L3692.15 2525.43L3621.44 2596.14L3632.05 2606.74ZM3550.73 2536.03L3621.44 2606.74L3632.05 2596.14L3561.34 2525.43L3550.73 2536.03ZM3419.92 2677.45L3561.34 2536.03L3550.73 2525.43L3409.31 2666.85L3419.92 2677.45ZM3490.63 2737.56L3419.92 2666.85L3409.31 2677.45L3480.02 2748.17L3490.63 2737.56ZM3419.92 2818.88L3490.63 2748.17L3480.02 2737.56L3409.31 2808.27L3419.92 2818.88ZM3278.49 2536.03L3419.92 2394.61L3409.31 2384.01L3267.89 2525.43L3278.49 2536.03ZM3349.2 2596.14L3278.49 2525.43L3267.89 2536.03L3338.6 2606.74L3349.2 2596.14ZM3480.02 2454.72L3338.6 2596.14L3349.2 2606.74L3490.63 2465.32L3480.02 2454.72ZM3409.31 2394.61L3480.02 2465.32L3490.63 2454.72L3419.92 2384.01L3409.31 2394.61Z" fill="black"/>
<path d="M2866.61 2795.9L3149.45 3078.74L3220.16 3008.03L3149.45 2937.32L3290.87 2795.9L3220.16 2725.18L3078.74 2866.61L3008.03 2795.9L3149.45 2654.47V2513.05L2866.61 2795.9Z" stroke="black" stroke-width="15"/>
<path d="M1063.48 3962.62H922.062L1204.91 3679.78L1275.62 3750.49L1204.91 3821.2L1417.04 4033.33L1346.33 4104.04L1134.19 3891.91L1063.48 3962.62Z" stroke="black" stroke-width="15"/>
<path d="M656.898 4227.79L651.595 4222.48L646.292 4227.79L651.595 4233.09L656.898 4227.79ZM939.741 4510.63L934.438 4515.93L939.741 4521.24L945.044 4515.93L939.741 4510.63ZM869.03 4015.65V4008.15H865.924L863.727 4010.35L869.03 4015.65ZM1010.45 4015.65L1015.76 4010.35L1013.56 4008.15H1010.45V4015.65ZM1222.58 4227.79L1227.89 4233.09L1233.19 4227.79L1227.89 4222.48L1222.58 4227.79ZM798.32 4227.79L793.016 4222.48L787.713 4227.79L793.016 4233.09L798.32 4227.79ZM939.741 4086.36L945.044 4081.06L939.741 4075.76L934.438 4081.06L939.741 4086.36ZM939.741 4369.21L934.438 4374.51L939.741 4379.81L945.044 4374.51L939.741 4369.21ZM1081.16 4227.79L1086.47 4233.09L1091.77 4227.79L1086.47 4222.48L1081.16 4227.79ZM651.595 4233.09L934.438 4515.93L945.044 4505.33L662.202 4222.48L651.595 4233.09ZM863.727 4010.35L651.595 4222.48L662.202 4233.09L874.334 4020.96L863.727 4010.35ZM1010.45 4008.15L869.03 4008.15V4023.15L1010.45 4023.15L1010.45 4008.15ZM1227.89 4222.48L1015.76 4010.35L1005.15 4020.96L1217.28 4233.09L1227.89 4222.48ZM945.044 4515.93L1227.89 4233.09L1217.28 4222.48L934.438 4505.33L945.044 4515.93ZM803.623 4233.09L945.044 4091.67L934.438 4081.06L793.016 4222.48L803.623 4233.09ZM945.044 4363.9L803.623 4222.48L793.016 4233.09L934.438 4374.51L945.044 4363.9ZM1075.86 4222.48L934.438 4363.9L945.044 4374.51L1086.47 4233.09L1075.86 4222.48ZM934.438 4091.67L1075.86 4233.09L1086.47 4222.48L945.044 4081.06L934.438 4091.67Z" fill="black"/>
<path d="M2265.56 2760.54H2124.14L2406.99 2477.7L2477.7 2548.41L2406.99 2619.12L2619.12 2831.25L2548.41 2901.96L2336.27 2689.83L2265.56 2760.54Z" stroke="black" stroke-width="15"/>
<path d="M1858.98 3025.7L1853.68 3020.4L1848.37 3025.7L1853.68 3031.01L1858.98 3025.7ZM2141.82 3308.55L2136.52 3313.85L2141.82 3319.15L2147.12 3313.85L2141.82 3308.55ZM2071.11 2813.57V2806.07H2068L2065.81 2808.27L2071.11 2813.57ZM2212.53 2813.57L2217.84 2808.27L2215.64 2806.07H2212.53L2212.53 2813.57ZM2424.66 3025.7L2429.97 3031.01L2435.27 3025.7L2429.97 3020.4L2424.66 3025.7ZM2000.4 3025.7L1995.1 3020.4L1989.79 3025.7L1995.1 3031.01L2000.4 3025.7ZM2141.82 2884.28L2147.12 2878.98L2141.82 2873.68L2136.52 2878.98L2141.82 2884.28ZM2141.82 3167.13L2136.52 3172.43L2141.82 3177.73L2147.12 3172.43L2141.82 3167.13ZM2283.24 3025.7L2288.55 3031.01L2293.85 3025.7L2288.55 3020.4L2283.24 3025.7ZM1853.68 3031.01L2136.52 3313.85L2147.12 3303.24L1864.28 3020.4L1853.68 3031.01ZM2065.81 2808.27L1853.68 3020.4L1864.28 3031.01L2076.41 2818.88L2065.81 2808.27ZM2212.53 2806.07L2071.11 2806.07V2821.07L2212.53 2821.07L2212.53 2806.07ZM2429.97 3020.4L2217.84 2808.27L2207.23 2818.88L2419.36 3031.01L2429.97 3020.4ZM2147.12 3313.85L2429.97 3031.01L2419.36 3020.4L2136.52 3303.24L2147.12 3313.85ZM2005.7 3031.01L2147.12 2889.59L2136.52 2878.98L1995.1 3020.4L2005.7 3031.01ZM2147.12 3161.82L2005.7 3020.4L1995.1 3031.01L2136.52 3172.43L2147.12 3161.82ZM2277.94 3020.4L2136.52 3161.82L2147.12 3172.43L2288.55 3031.01L2277.94 3020.4ZM2136.52 2889.59L2277.94 3031.01L2288.55 3020.4L2147.12 2878.98L2136.52 2889.59Z" fill="black"/>
<path d="M1611.49 3414.61L1603.99 3414.61V3417.72L1606.19 3419.92L1611.49 3414.61ZM1823.62 3626.75L1818.32 3632.05L1823.62 3637.35L1828.93 3632.05L1823.62 3626.75ZM1611.49 3273.19L1606.19 3267.89L1603.99 3270.09V3273.19H1611.49ZM1823.62 3061.06L1828.93 3055.76L1823.62 3050.45L1818.32 3055.76L1823.62 3061.06ZM2106.46 3343.9L2111.77 3349.21L2117.07 3343.9L2111.77 3338.6L2106.46 3343.9ZM2035.75 3414.61L2030.45 3419.92L2035.75 3425.22L2041.06 3419.92L2035.75 3414.61ZM1965.04 3343.9L1970.35 3338.6L1965.04 3333.3L1959.74 3338.6L1965.04 3343.9ZM1823.62 3485.32L1818.32 3480.02L1813.02 3485.32L1818.32 3490.63L1823.62 3485.32ZM1894.33 3556.03L1899.64 3561.34L1904.94 3556.03L1899.64 3550.73L1894.33 3556.03ZM1682.2 3343.9L1676.9 3338.6L1671.59 3343.9L1676.9 3349.21L1682.2 3343.9ZM1823.62 3202.48L1828.93 3197.18L1823.62 3191.87L1818.32 3197.18L1823.62 3202.48ZM1752.91 3414.61L1747.61 3419.92L1752.91 3425.22L1758.21 3419.92L1752.91 3414.61ZM1894.33 3273.19L1899.64 3278.5L1904.94 3273.19L1899.64 3267.89L1894.33 3273.19ZM1606.19 3419.92L1818.32 3632.05L1828.93 3621.44L1616.79 3409.31L1606.19 3419.92ZM1603.99 3273.19L1603.99 3414.61L1618.99 3414.61L1618.99 3273.19H1603.99ZM1818.32 3055.76L1606.19 3267.89L1616.79 3278.5L1828.93 3066.36L1818.32 3055.76ZM2111.77 3338.6L1828.93 3055.76L1818.32 3066.36L2101.16 3349.21L2111.77 3338.6ZM2041.06 3419.92L2111.77 3349.21L2101.16 3338.6L2030.45 3409.31L2041.06 3419.92ZM1959.74 3349.21L2030.45 3419.92L2041.06 3409.31L1970.35 3338.6L1959.74 3349.21ZM1828.93 3490.63L1970.35 3349.21L1959.74 3338.6L1818.32 3480.02L1828.93 3490.63ZM1899.64 3550.73L1828.93 3480.02L1818.32 3490.63L1889.03 3561.34L1899.64 3550.73ZM1828.93 3632.05L1899.64 3561.34L1889.03 3550.73L1818.32 3621.44L1828.93 3632.05ZM1687.5 3349.21L1828.93 3207.78L1818.32 3197.18L1676.9 3338.6L1687.5 3349.21ZM1758.21 3409.31L1687.5 3338.6L1676.9 3349.21L1747.61 3419.92L1758.21 3409.31ZM1889.03 3267.89L1747.61 3409.31L1758.21 3419.92L1899.64 3278.5L1889.03 3267.89ZM1818.32 3207.78L1889.03 3278.5L1899.64 3267.89L1828.93 3197.18L1818.32 3207.78Z" fill="black"/>
<path d="M1275.62 3609.07L1558.46 3891.91L1629.17 3821.2L1558.46 3750.49L1699.88 3609.07L1629.17 3538.36L1487.75 3679.78L1417.04 3609.07L1558.46 3467.65V3326.23L1275.62 3609.07Z" stroke="black" stroke-width="15"/>
<path d="M3467.65 1558.46H3326.22L3609.07 1275.62L3679.78 1346.33L3609.07 1417.04L3821.2 1629.17L3750.49 1699.88L3538.36 1487.75L3467.65 1558.46Z" stroke="black" stroke-width="15"/>
<path d="M3061.06 1823.62L3055.76 1818.32L3050.45 1823.62L3055.76 1828.93L3061.06 1823.62ZM3343.9 2106.47L3338.6 2111.77L3343.9 2117.07L3349.21 2111.77L3343.9 2106.47ZM3273.19 1611.49V1603.99H3270.09L3267.89 1606.19L3273.19 1611.49ZM3414.61 1611.49L3419.92 1606.19L3417.72 1603.99L3414.61 1603.99L3414.61 1611.49ZM3626.75 1823.62L3632.05 1828.93L3637.35 1823.62L3632.05 1818.32L3626.75 1823.62ZM3202.48 1823.62L3197.18 1818.32L3191.88 1823.62L3197.18 1828.93L3202.48 1823.62ZM3343.9 1682.2L3349.21 1676.9L3343.9 1671.6L3338.6 1676.9L3343.9 1682.2ZM3343.9 1965.04L3338.6 1970.35L3343.9 1975.65L3349.21 1970.35L3343.9 1965.04ZM3485.32 1823.62L3490.63 1828.93L3495.93 1823.62L3490.63 1818.32L3485.32 1823.62ZM3055.76 1828.93L3338.6 2111.77L3349.21 2101.16L3066.36 1818.32L3055.76 1828.93ZM3267.89 1606.19L3055.76 1818.32L3066.36 1828.93L3278.5 1616.79L3267.89 1606.19ZM3414.61 1603.99L3273.19 1603.99V1618.99L3414.61 1618.99L3414.61 1603.99ZM3632.05 1818.32L3419.92 1606.19L3409.31 1616.79L3621.44 1828.93L3632.05 1818.32ZM3349.21 2111.77L3632.05 1828.93L3621.44 1818.32L3338.6 2101.16L3349.21 2111.77ZM3207.79 1828.93L3349.21 1687.5L3338.6 1676.9L3197.18 1818.32L3207.79 1828.93ZM3349.21 1959.74L3207.79 1818.32L3197.18 1828.93L3338.6 1970.35L3349.21 1959.74ZM3480.02 1818.32L3338.6 1959.74L3349.21 1970.35L3490.63 1828.93L3480.02 1818.32ZM3338.6 1687.5L3480.02 1828.93L3490.63 1818.32L3349.21 1676.9L3338.6 1687.5Z" fill="black"/>
<path d="M2813.57 2212.53L2806.07 2212.53V2215.64L2808.27 2217.84L2813.57 2212.53ZM3025.7 2424.66L3020.4 2429.97L3025.7 2435.27L3031.01 2429.97L3025.7 2424.66ZM2813.57 2071.11L2808.27 2065.81L2806.07 2068V2071.11H2813.57ZM3025.7 1858.98L3031.01 1853.68L3025.7 1848.37L3020.4 1853.68L3025.7 1858.98ZM3308.55 2141.82L3313.85 2147.12L3319.15 2141.82L3313.85 2136.52L3308.55 2141.82ZM3237.84 2212.53L3232.53 2217.84L3237.84 2223.14L3243.14 2217.84L3237.84 2212.53ZM3167.13 2141.82L3172.43 2136.52L3167.13 2131.21L3161.82 2136.52L3167.13 2141.82ZM3025.7 2283.24L3020.4 2277.94L3015.1 2283.24L3020.4 2288.55L3025.7 2283.24ZM3096.41 2353.95L3101.72 2359.26L3107.02 2353.95L3101.72 2348.65L3096.41 2353.95ZM2884.28 2141.82L2878.98 2136.52L2873.68 2141.82L2878.98 2147.12L2884.28 2141.82ZM3025.7 2000.4L3031.01 1995.1L3025.7 1989.79L3020.4 1995.1L3025.7 2000.4ZM2954.99 2212.53L2949.69 2217.84L2954.99 2223.14L2960.3 2217.84L2954.99 2212.53ZM3096.41 2071.11L3101.72 2076.41L3107.02 2071.11L3101.72 2065.81L3096.41 2071.11ZM2808.27 2217.84L3020.4 2429.97L3031.01 2419.36L2818.88 2207.23L2808.27 2217.84ZM2806.07 2071.11L2806.07 2212.53L2821.07 2212.53L2821.07 2071.11H2806.07ZM3020.4 1853.68L2808.27 2065.81L2818.88 2076.41L3031.01 1864.28L3020.4 1853.68ZM3313.85 2136.52L3031.01 1853.68L3020.4 1864.28L3303.24 2147.12L3313.85 2136.52ZM3243.14 2217.84L3313.85 2147.12L3303.24 2136.52L3232.53 2207.23L3243.14 2217.84ZM3161.82 2147.12L3232.53 2217.84L3243.14 2207.23L3172.43 2136.52L3161.82 2147.12ZM3031.01 2288.55L3172.43 2147.12L3161.82 2136.52L3020.4 2277.94L3031.01 2288.55ZM3101.72 2348.65L3031.01 2277.94L3020.4 2288.55L3091.11 2359.26L3101.72 2348.65ZM3031.01 2429.97L3101.72 2359.26L3091.11 2348.65L3020.4 2419.36L3031.01 2429.97ZM2889.59 2147.12L3031.01 2005.7L3020.4 1995.1L2878.98 2136.52L2889.59 2147.12ZM2960.3 2207.23L2889.59 2136.52L2878.98 2147.12L2949.69 2217.84L2960.3 2207.23ZM3091.11 2065.81L2949.69 2207.23L2960.3 2217.84L3101.72 2076.41L3091.11 2065.81ZM3020.4 2005.7L3091.11 2076.41L3101.72 2065.81L3031.01 1995.1L3020.4 2005.7Z" fill="black"/>
<path d="M2477.7 2406.99L2760.54 2689.83L2831.25 2619.12L2760.54 2548.41L2901.96 2406.99L2831.25 2336.28L2689.83 2477.7L2619.12 2406.99L2760.54 2265.56V2124.14L2477.7 2406.99Z" stroke="black" stroke-width="15"/>
<path d="M4015.65 1010.45H4008.15V1013.56L4010.35 1015.75L4015.65 1010.45ZM4227.79 1222.58L4222.48 1227.89L4227.79 1233.19L4233.09 1227.89L4227.79 1222.58ZM4015.65 869.029L4010.35 863.726L4008.15 865.922V869.029H4015.65ZM4227.79 656.897L4233.09 651.594L4227.79 646.29L4222.48 651.594L4227.79 656.897ZM4510.63 939.74L4515.93 945.043L4521.24 939.74L4515.93 934.436L4510.63 939.74ZM4439.92 1010.45L4434.61 1015.75L4439.92 1021.06L4445.22 1015.75L4439.92 1010.45ZM4369.21 939.74L4374.51 934.436L4369.21 929.133L4363.9 934.436L4369.21 939.74ZM4227.79 1081.16L4222.48 1075.86L4217.18 1081.16L4222.48 1086.46L4227.79 1081.16ZM4298.5 1151.87L4303.8 1157.18L4309.1 1151.87L4303.8 1146.57L4298.5 1151.87ZM4086.36 939.74L4081.06 934.436L4075.76 939.74L4081.06 945.043L4086.36 939.74ZM4227.79 798.318L4233.09 793.015L4227.79 787.712L4222.48 793.015L4227.79 798.318ZM4157.08 1010.45L4151.77 1015.75L4157.08 1021.06L4162.38 1015.75L4157.08 1010.45ZM4298.5 869.029L4303.8 874.332L4309.1 869.029L4303.8 863.726L4298.5 869.029ZM4010.35 1015.75L4222.48 1227.89L4233.09 1217.28L4020.96 1005.15L4010.35 1015.75ZM4008.15 869.029L4008.15 1010.45L4023.15 1010.45L4023.15 869.029H4008.15ZM4222.48 651.594L4010.35 863.726L4020.96 874.332L4233.09 662.2L4222.48 651.594ZM4515.93 934.436L4233.09 651.594L4222.48 662.2L4505.33 945.043L4515.93 934.436ZM4445.22 1015.75L4515.93 945.043L4505.33 934.436L4434.61 1005.15L4445.22 1015.75ZM4363.9 945.043L4434.61 1015.75L4445.22 1005.15L4374.51 934.436L4363.9 945.043ZM4233.09 1086.46L4374.51 945.043L4363.9 934.436L4222.48 1075.86L4233.09 1086.46ZM4303.8 1146.57L4233.09 1075.86L4222.48 1086.46L4293.19 1157.18L4303.8 1146.57ZM4233.09 1227.89L4303.8 1157.18L4293.19 1146.57L4222.48 1217.28L4233.09 1227.89ZM4091.67 945.043L4233.09 803.622L4222.48 793.015L4081.06 934.436L4091.67 945.043ZM4162.38 1005.15L4091.67 934.436L4081.06 945.043L4151.77 1015.75L4162.38 1005.15ZM4293.19 863.726L4151.77 1005.15L4162.38 1015.75L4303.8 874.332L4293.19 863.726ZM4222.48 803.622L4293.19 874.332L4303.8 863.726L4233.09 793.015L4222.48 803.622Z" fill="black"/>
<path d="M3679.78 1204.9L3962.62 1487.75L4033.33 1417.04L3962.62 1346.33L4104.04 1204.9L4033.33 1134.19L3891.91 1275.62L3821.2 1204.9L3962.62 1063.48V922.062L3679.78 1204.9Z" stroke="black" stroke-width="15"/>
<path d="M674.574 3573.71H533.152L815.995 3290.87L886.706 3361.58L815.995 3432.29L1028.13 3644.42L957.416 3715.13L745.284 3503L674.574 3573.71Z" stroke="black" stroke-width="15"/>
<path d="M267.988 3838.88L262.685 3833.57L257.382 3838.88L262.685 3844.18L267.988 3838.88ZM550.831 4121.72L545.528 4127.02L550.831 4132.33L556.134 4127.02L550.831 4121.72ZM480.12 3626.75V3619.25H477.014L474.817 3621.44L480.12 3626.75ZM621.542 3626.75L626.845 3621.44L624.648 3619.25H621.542V3626.75ZM833.674 3838.88L838.977 3844.18L844.28 3838.88L838.977 3833.57L833.674 3838.88ZM409.41 3838.88L404.106 3833.57L398.803 3838.88L404.106 3844.18L409.41 3838.88ZM550.831 3697.46L556.134 3692.15L550.831 3686.85L545.528 3692.15L550.831 3697.46ZM550.831 3980.3L545.528 3985.6L550.831 3990.91L556.134 3985.6L550.831 3980.3ZM692.252 3838.88L697.556 3844.18L702.859 3838.88L697.556 3833.57L692.252 3838.88ZM262.685 3844.18L545.528 4127.02L556.134 4116.42L273.292 3833.57L262.685 3844.18ZM474.817 3621.44L262.685 3833.57L273.292 3844.18L485.424 3632.05L474.817 3621.44ZM621.542 3619.25H480.12V3634.25H621.542V3619.25ZM838.977 3833.57L626.845 3621.44L616.238 3632.05L828.37 3844.18L838.977 3833.57ZM556.134 4127.02L838.977 3844.18L828.37 3833.57L545.528 4116.42L556.134 4127.02ZM414.713 3844.18L556.134 3702.76L545.528 3692.15L404.106 3833.57L414.713 3844.18ZM556.134 3975L414.713 3833.57L404.106 3844.18L545.528 3985.6L556.134 3975ZM686.949 3833.57L545.528 3975L556.134 3985.6L697.556 3844.18L686.949 3833.57ZM545.528 3702.76L686.949 3844.18L697.556 3833.57L556.134 3692.15L545.528 3702.76Z" fill="black"/>
<path d="M20.4997 4227.79H12.9997L12.9997 4230.89L15.1964 4233.09L20.4997 4227.79ZM232.632 4439.92L227.328 4445.22L232.632 4450.52L237.935 4445.22L232.632 4439.92ZM20.4997 4086.37L15.1964 4081.06L12.9997 4083.26L12.9997 4086.37H20.4997ZM232.632 3874.23L237.935 3868.93L232.632 3863.63L227.328 3868.93L232.632 3874.23ZM515.474 4157.08L520.778 4162.38L526.081 4157.08L520.778 4151.77L515.474 4157.08ZM444.764 4227.79L439.461 4233.09L444.764 4238.39L450.067 4233.09L444.764 4227.79ZM374.053 4157.08L379.356 4151.77L374.053 4146.47L368.75 4151.77L374.053 4157.08ZM232.632 4298.5L227.328 4293.19L222.025 4298.5L227.328 4303.8L232.632 4298.5ZM303.342 4369.21L308.646 4374.51L313.949 4369.21L308.646 4363.9L303.342 4369.21ZM91.2104 4157.08L85.9071 4151.77L80.6038 4157.08L85.9071 4162.38L91.2104 4157.08ZM232.632 4015.65L237.935 4010.35L232.632 4005.05L227.328 4010.35L232.632 4015.65ZM161.921 4227.79L156.618 4233.09L161.921 4238.39L167.224 4233.09L161.921 4227.79ZM303.342 4086.37L308.646 4091.67L313.949 4086.37L308.646 4081.06L303.342 4086.37ZM15.1964 4233.09L227.328 4445.22L237.935 4434.62L25.803 4222.48L15.1964 4233.09ZM12.9997 4086.37V4227.79H27.9997V4086.37H12.9997ZM227.328 3868.93L15.1964 4081.06L25.803 4091.67L237.935 3879.54L227.328 3868.93ZM520.778 4151.77L237.935 3868.93L227.328 3879.54L510.171 4162.38L520.778 4151.77ZM450.067 4233.09L520.778 4162.38L510.171 4151.77L439.461 4222.48L450.067 4233.09ZM368.75 4162.38L439.461 4233.09L450.067 4222.48L379.356 4151.77L368.75 4162.38ZM237.935 4303.8L379.356 4162.38L368.75 4151.77L227.328 4293.19L237.935 4303.8ZM308.646 4363.9L237.935 4293.19L227.328 4303.8L298.039 4374.51L308.646 4363.9ZM237.935 4445.22L308.646 4374.51L298.039 4363.9L227.328 4434.62L237.935 4445.22ZM96.5137 4162.38L237.935 4020.96L227.328 4010.35L85.9071 4151.77L96.5137 4162.38ZM167.224 4222.48L96.5137 4151.77L85.9071 4162.38L156.618 4233.09L167.224 4222.48ZM298.039 4081.06L156.618 4222.48L167.224 4233.09L308.646 4091.67L298.039 4081.06ZM227.328 4020.96L298.039 4091.67L308.646 4081.06L237.935 4010.35L227.328 4020.96Z" fill="black"/>
<path d="M1876.65 2371.63H1735.23L2018.08 2088.79L2088.79 2159.5L2018.08 2230.21L2230.21 2442.34L2159.5 2513.05L1947.36 2300.92L1876.65 2371.63Z" stroke="black" stroke-width="15"/>
<path d="M1470.07 2636.8L1464.77 2631.49L1459.46 2636.8L1464.77 2642.1L1470.07 2636.8ZM1752.91 2919.64L1747.61 2924.94L1752.91 2930.25L1758.21 2924.94L1752.91 2919.64ZM1682.2 2424.66V2417.16H1679.09L1676.9 2419.36L1682.2 2424.66ZM1823.62 2424.66L1828.93 2419.36L1826.73 2417.16H1823.62V2424.66ZM2035.75 2636.8L2041.06 2642.1L2046.36 2636.8L2041.06 2631.49L2035.75 2636.8ZM1611.49 2636.8L1606.19 2631.49L1600.88 2636.8L1606.19 2642.1L1611.49 2636.8ZM1752.91 2495.37L1758.21 2490.07L1752.91 2484.77L1747.61 2490.07L1752.91 2495.37ZM1752.91 2778.22L1747.61 2783.52L1752.91 2788.82L1758.21 2783.52L1752.91 2778.22ZM1894.33 2636.8L1899.64 2642.1L1904.94 2636.8L1899.64 2631.49L1894.33 2636.8ZM1464.77 2642.1L1747.61 2924.94L1758.21 2914.34L1475.37 2631.49L1464.77 2642.1ZM1676.9 2419.36L1464.77 2631.49L1475.37 2642.1L1687.5 2429.97L1676.9 2419.36ZM1823.62 2417.16H1682.2V2432.16H1823.62V2417.16ZM2041.06 2631.49L1828.93 2419.36L1818.32 2429.97L2030.45 2642.1L2041.06 2631.49ZM1758.21 2924.94L2041.06 2642.1L2030.45 2631.49L1747.61 2914.34L1758.21 2924.94ZM1616.79 2642.1L1758.21 2500.68L1747.61 2490.07L1606.19 2631.49L1616.79 2642.1ZM1758.21 2772.91L1616.79 2631.49L1606.19 2642.1L1747.61 2783.52L1758.21 2772.91ZM1889.03 2631.49L1747.61 2772.91L1758.21 2783.52L1899.64 2642.1L1889.03 2631.49ZM1747.61 2500.68L1889.03 2642.1L1899.64 2631.49L1758.21 2490.07L1747.61 2500.68Z" fill="black"/>
<path d="M1222.58 3025.7H1215.08V3028.81L1217.28 3031.01L1222.58 3025.7ZM1434.71 3237.84L1429.41 3243.14L1434.71 3248.44L1440.02 3243.14L1434.71 3237.84ZM1222.58 2884.28L1217.28 2878.98L1215.08 2881.18V2884.28H1222.58ZM1434.71 2672.15L1440.02 2666.85L1434.71 2661.54L1429.41 2666.85L1434.71 2672.15ZM1717.55 2954.99L1722.86 2960.3L1728.16 2954.99L1722.86 2949.69L1717.55 2954.99ZM1646.84 3025.7L1641.54 3031.01L1646.84 3036.31L1652.15 3031.01L1646.84 3025.7ZM1576.13 2954.99L1581.44 2949.69L1576.13 2944.39L1570.83 2949.69L1576.13 2954.99ZM1434.71 3096.42L1429.41 3091.11L1424.11 3096.42L1429.41 3101.72L1434.71 3096.42ZM1505.42 3167.13L1510.73 3172.43L1516.03 3167.13L1510.73 3161.82L1505.42 3167.13ZM1293.29 2954.99L1287.99 2949.69L1282.68 2954.99L1287.99 2960.3L1293.29 2954.99ZM1434.71 2813.57L1440.02 2808.27L1434.71 2802.97L1429.41 2808.27L1434.71 2813.57ZM1364 3025.7L1358.7 3031.01L1364 3036.31L1369.3 3031.01L1364 3025.7ZM1505.42 2884.28L1510.73 2889.59L1516.03 2884.28L1510.73 2878.98L1505.42 2884.28ZM1217.28 3031.01L1429.41 3243.14L1440.02 3232.53L1227.88 3020.4L1217.28 3031.01ZM1215.08 2884.28V3025.7H1230.08V2884.28H1215.08ZM1429.41 2666.85L1217.28 2878.98L1227.88 2889.59L1440.02 2677.45L1429.41 2666.85ZM1722.86 2949.69L1440.02 2666.85L1429.41 2677.45L1712.25 2960.3L1722.86 2949.69ZM1652.15 3031.01L1722.86 2960.3L1712.25 2949.69L1641.54 3020.4L1652.15 3031.01ZM1570.83 2960.3L1641.54 3031.01L1652.15 3020.4L1581.44 2949.69L1570.83 2960.3ZM1440.02 3101.72L1581.44 2960.3L1570.83 2949.69L1429.41 3091.11L1440.02 3101.72ZM1510.73 3161.82L1440.02 3091.11L1429.41 3101.72L1500.12 3172.43L1510.73 3161.82ZM1440.02 3243.14L1510.73 3172.43L1500.12 3161.82L1429.41 3232.53L1440.02 3243.14ZM1298.59 2960.3L1440.02 2818.88L1429.41 2808.27L1287.99 2949.69L1298.59 2960.3ZM1369.3 3020.4L1298.59 2949.69L1287.99 2960.3L1358.7 3031.01L1369.3 3020.4ZM1500.12 2878.98L1358.7 3020.4L1369.3 3031.01L1510.73 2889.59L1500.12 2878.98ZM1429.41 2818.88L1500.12 2889.59L1510.73 2878.98L1440.02 2808.27L1429.41 2818.88Z" fill="black"/>
<path d="M886.705 3220.16L1169.55 3503L1240.26 3432.29L1169.55 3361.58L1310.97 3220.16L1240.26 3149.45L1098.84 3290.87L1028.13 3220.16L1169.55 3078.74V2937.32L886.705 3220.16Z" stroke="black" stroke-width="15"/>
<path d="M3078.74 1169.55H2937.31L3220.16 886.707L3290.87 957.417L3220.16 1028.13L3432.29 1240.26L3361.58 1310.97L3149.45 1098.84L3078.74 1169.55Z" stroke="black" stroke-width="15"/>
<path d="M2672.15 1434.71L2666.85 1429.41L2661.54 1434.71L2666.85 1440.02L2672.15 1434.71ZM2954.99 1717.56L2949.69 1722.86L2954.99 1728.16L2960.3 1722.86L2954.99 1717.56ZM2884.28 1222.58V1215.08H2881.18L2878.98 1217.28L2884.28 1222.58ZM3025.7 1222.58L3031.01 1217.28L3028.81 1215.08H3025.7V1222.58ZM3237.84 1434.71L3243.14 1440.02L3248.44 1434.71L3243.14 1429.41L3237.84 1434.71ZM2813.57 1434.71L2808.27 1429.41L2802.97 1434.71L2808.27 1440.02L2813.57 1434.71ZM2954.99 1293.29L2960.3 1287.99L2954.99 1282.69L2949.69 1287.99L2954.99 1293.29ZM2954.99 1576.14L2949.69 1581.44L2954.99 1586.74L2960.3 1581.44L2954.99 1576.14ZM3096.41 1434.71L3101.72 1440.02L3107.02 1434.71L3101.72 1429.41L3096.41 1434.71ZM2666.85 1440.02L2949.69 1722.86L2960.3 1712.25L2677.45 1429.41L2666.85 1440.02ZM2878.98 1217.28L2666.85 1429.41L2677.45 1440.02L2889.59 1227.89L2878.98 1217.28ZM3025.7 1215.08H2884.28V1230.08H3025.7V1215.08ZM3243.14 1429.41L3031.01 1217.28L3020.4 1227.89L3232.53 1440.02L3243.14 1429.41ZM2960.3 1722.86L3243.14 1440.02L3232.53 1429.41L2949.69 1712.25L2960.3 1722.86ZM2818.88 1440.02L2960.3 1298.6L2949.69 1287.99L2808.27 1429.41L2818.88 1440.02ZM2960.3 1570.83L2818.88 1429.41L2808.27 1440.02L2949.69 1581.44L2960.3 1570.83ZM3091.11 1429.41L2949.69 1570.83L2960.3 1581.44L3101.72 1440.02L3091.11 1429.41ZM2949.69 1298.6L3091.11 1440.02L3101.72 1429.41L2960.3 1287.99L2949.69 1298.6Z" fill="black"/>
<path d="M2424.66 1823.62H2417.16V1826.73L2419.36 1828.93L2424.66 1823.62ZM2636.79 2035.76L2631.49 2041.06L2636.79 2046.36L2642.1 2041.06L2636.79 2035.76ZM2424.66 1682.2L2419.36 1676.9L2417.16 1679.1V1682.2H2424.66ZM2636.79 1470.07L2642.1 1464.77L2636.79 1459.46L2631.49 1464.77L2636.79 1470.07ZM2919.64 1752.91L2924.94 1758.22L2930.24 1752.91L2924.94 1747.61L2919.64 1752.91ZM2848.93 1823.62L2843.62 1828.93L2848.93 1834.23L2854.23 1828.93L2848.93 1823.62ZM2778.22 1752.91L2783.52 1747.61L2778.22 1742.31L2772.91 1747.61L2778.22 1752.91ZM2636.79 1894.33L2631.49 1889.03L2626.19 1894.33L2631.49 1899.64L2636.79 1894.33ZM2707.5 1965.04L2712.81 1970.35L2718.11 1965.04L2712.81 1959.74L2707.5 1965.04ZM2495.37 1752.91L2490.07 1747.61L2484.77 1752.91L2490.07 1758.22L2495.37 1752.91ZM2636.79 1611.49L2642.1 1606.19L2636.79 1600.88L2631.49 1606.19L2636.79 1611.49ZM2566.08 1823.62L2560.78 1828.93L2566.08 1834.23L2571.39 1828.93L2566.08 1823.62ZM2707.5 1682.2L2712.81 1687.51L2718.11 1682.2L2712.81 1676.9L2707.5 1682.2ZM2419.36 1828.93L2631.49 2041.06L2642.1 2030.45L2429.97 1818.32L2419.36 1828.93ZM2417.16 1682.2V1823.62H2432.16V1682.2H2417.16ZM2631.49 1464.77L2419.36 1676.9L2429.97 1687.51L2642.1 1475.37L2631.49 1464.77ZM2924.94 1747.61L2642.1 1464.77L2631.49 1475.37L2914.33 1758.22L2924.94 1747.61ZM2854.23 1828.93L2924.94 1758.22L2914.33 1747.61L2843.62 1818.32L2854.23 1828.93ZM2772.91 1758.22L2843.62 1828.93L2854.23 1818.32L2783.52 1747.61L2772.91 1758.22ZM2642.1 1899.64L2783.52 1758.22L2772.91 1747.61L2631.49 1889.03L2642.1 1899.64ZM2712.81 1959.74L2642.1 1889.03L2631.49 1899.64L2702.2 1970.35L2712.81 1959.74ZM2642.1 2041.06L2712.81 1970.35L2702.2 1959.74L2631.49 2030.45L2642.1 2041.06ZM2500.68 1758.22L2642.1 1616.79L2631.49 1606.19L2490.07 1747.61L2500.68 1758.22ZM2571.39 1818.32L2500.68 1747.61L2490.07 1758.22L2560.78 1828.93L2571.39 1818.32ZM2702.2 1676.9L2560.78 1818.32L2571.39 1828.93L2712.81 1687.51L2702.2 1676.9ZM2631.49 1616.79L2702.2 1687.51L2712.81 1676.9L2642.1 1606.19L2631.49 1616.79Z" fill="black"/>
<path d="M2088.79 2018.08L2371.63 2300.92L2442.34 2230.21L2371.63 2159.5L2513.05 2018.08L2442.34 1947.37L2300.92 2088.79L2230.21 2018.08L2371.63 1876.66V1735.23L2088.79 2018.08Z" stroke="black" stroke-width="15"/>
<path d="M3874.23 232.633L3868.93 227.33L3863.63 232.633L3868.93 237.936L3874.23 232.633ZM4157.08 515.476L4151.77 520.779L4157.08 526.082L4162.38 520.779L4157.08 515.476ZM4086.36 20.5008V13.0008H4083.26L4081.06 15.1975L4086.36 20.5008ZM4227.79 20.5008L4233.09 15.1975L4230.89 13.0008L4227.79 13.0008V20.5008ZM4439.92 232.633L4445.22 237.936L4450.52 232.633L4445.22 227.33L4439.92 232.633ZM4015.65 232.633L4010.35 227.33L4005.05 232.633L4010.35 237.936L4015.65 232.633ZM4157.08 91.2115L4162.38 85.9082L4157.08 80.6049L4151.77 85.9082L4157.08 91.2115ZM4157.08 374.054L4151.77 379.357L4157.08 384.661L4162.38 379.357L4157.08 374.054ZM4298.5 232.633L4303.8 237.936L4309.1 232.633L4303.8 227.33L4298.5 232.633ZM3868.93 237.936L4151.77 520.779L4162.38 510.172L3879.54 227.33L3868.93 237.936ZM4081.06 15.1975L3868.93 227.33L3879.54 237.936L4091.67 25.8041L4081.06 15.1975ZM4227.79 13.0008L4086.36 13.0008V28.0008L4227.79 28.0008V13.0008ZM4445.22 227.33L4233.09 15.1975L4222.48 25.8041L4434.61 237.936L4445.22 227.33ZM4162.38 520.779L4445.22 237.936L4434.61 227.33L4151.77 510.172L4162.38 520.779ZM4020.96 237.936L4162.38 96.5148L4151.77 85.9082L4010.35 227.33L4020.96 237.936ZM4162.38 368.751L4020.96 227.33L4010.35 237.936L4151.77 379.357L4162.38 368.751ZM4293.19 227.33L4151.77 368.751L4162.38 379.357L4303.8 237.936L4293.19 227.33ZM4151.77 96.5148L4293.19 237.936L4303.8 227.33L4162.38 85.9082L4151.77 96.5148Z" fill="black"/>
<path d="M3626.74 621.542H3619.24V624.648L3621.44 626.845L3626.74 621.542ZM3838.88 833.674L3833.57 838.977L3838.88 844.28L3844.18 838.977L3838.88 833.674ZM3626.74 480.12L3621.44 474.817L3619.24 477.014V480.12H3626.74ZM3838.88 267.988L3844.18 262.685L3838.88 257.382L3833.57 262.685L3838.88 267.988ZM4121.72 550.831L4127.02 556.134L4132.33 550.831L4127.02 545.528L4121.72 550.831ZM4051.01 621.542L4045.7 626.845L4051.01 632.148L4056.31 626.845L4051.01 621.542ZM3980.3 550.831L3985.6 545.528L3980.3 540.224L3974.99 545.528L3980.3 550.831ZM3838.88 692.252L3833.57 686.949L3828.27 692.252L3833.57 697.556L3838.88 692.252ZM3909.59 762.963L3914.89 768.266L3920.19 762.963L3914.89 757.66L3909.59 762.963ZM3697.45 550.831L3692.15 545.528L3686.85 550.831L3692.15 556.134L3697.45 550.831ZM3838.88 409.41L3844.18 404.106L3838.88 398.803L3833.57 404.106L3838.88 409.41ZM3768.17 621.542L3762.86 626.845L3768.17 632.148L3773.47 626.845L3768.17 621.542ZM3909.59 480.12L3914.89 485.424L3920.19 480.12L3914.89 474.817L3909.59 480.12ZM3621.44 626.845L3833.57 838.977L3844.18 828.37L3632.05 616.238L3621.44 626.845ZM3619.24 480.12V621.542H3634.24V480.12H3619.24ZM3833.57 262.685L3621.44 474.817L3632.05 485.424L3844.18 273.292L3833.57 262.685ZM4127.02 545.528L3844.18 262.685L3833.57 273.292L4116.42 556.134L4127.02 545.528ZM4056.31 626.845L4127.02 556.134L4116.42 545.528L4045.7 616.238L4056.31 626.845ZM3974.99 556.134L4045.7 626.845L4056.31 616.238L3985.6 545.528L3974.99 556.134ZM3844.18 697.556L3985.6 556.134L3974.99 545.528L3833.57 686.949L3844.18 697.556ZM3914.89 757.66L3844.18 686.949L3833.57 697.556L3904.28 768.266L3914.89 757.66ZM3844.18 838.977L3914.89 768.266L3904.28 757.66L3833.57 828.37L3844.18 838.977ZM3702.76 556.134L3844.18 414.713L3833.57 404.106L3692.15 545.528L3702.76 556.134ZM3773.47 616.238L3702.76 545.528L3692.15 556.134L3762.86 626.845L3773.47 616.238ZM3904.28 474.817L3762.86 616.238L3773.47 626.845L3914.89 485.424L3904.28 474.817ZM3833.57 414.713L3904.28 485.424L3914.89 474.817L3844.18 404.106L3833.57 414.713Z" fill="black"/>
<path d="M3290.87 815.996L3573.71 1098.84L3644.42 1028.13L3573.71 957.417L3715.13 815.996L3644.42 745.285L3503 886.707L3432.29 815.996L3573.71 674.575V533.153L3290.87 815.996Z" stroke="black" stroke-width="15"/>
<path d="M285.665 3184.8H144.244L427.087 2901.96L497.798 2972.67L427.087 3043.38L639.219 3255.51L568.508 3326.23L356.376 3114.09L285.665 3184.8Z" stroke="black" stroke-width="15"/>
<path d="M-120.92 3449.97L-126.223 3444.67L-131.527 3449.97L-126.223 3455.27L-120.92 3449.97ZM161.923 3732.81L156.619 3738.11L161.923 3743.42L167.226 3738.11L161.923 3732.81ZM91.2121 3237.84L91.2121 3230.34H88.1055L85.9088 3232.53L91.2121 3237.84ZM232.633 3237.84L237.937 3232.53L235.74 3230.34H232.633L232.633 3237.84ZM444.765 3449.97L450.069 3455.27L455.372 3449.97L450.069 3444.67L444.765 3449.97ZM20.5014 3449.97L15.1981 3444.67L9.89483 3449.97L15.1981 3455.27L20.5014 3449.97ZM161.923 3308.55L167.226 3303.24L161.923 3297.94L156.619 3303.24L161.923 3308.55ZM161.923 3591.39L156.619 3596.69L161.923 3602L167.226 3596.69L161.923 3591.39ZM303.344 3449.97L308.647 3455.27L313.951 3449.97L308.647 3444.67L303.344 3449.97ZM-126.223 3455.27L156.619 3738.11L167.226 3727.51L-115.617 3444.67L-126.223 3455.27ZM85.9088 3232.53L-126.223 3444.67L-115.617 3455.27L96.5154 3243.14L85.9088 3232.53ZM232.633 3230.34L91.2121 3230.34L91.2121 3245.34L232.633 3245.34L232.633 3230.34ZM450.069 3444.67L237.937 3232.53L227.33 3243.14L439.462 3455.27L450.069 3444.67ZM167.226 3738.11L450.069 3455.27L439.462 3444.67L156.619 3727.51L167.226 3738.11ZM25.8047 3455.27L167.226 3313.85L156.619 3303.24L15.1981 3444.67L25.8047 3455.27ZM167.226 3586.09L25.8047 3444.67L15.1981 3455.27L156.619 3596.69L167.226 3586.09ZM298.041 3444.67L156.619 3586.09L167.226 3596.69L308.647 3455.27L298.041 3444.67ZM156.619 3313.85L298.041 3455.27L308.647 3444.67L167.226 3303.24L156.619 3313.85Z" fill="black"/>
<path d="M-368.408 3838.88L-375.908 3838.88L-375.908 3841.98L-373.712 3844.18L-368.408 3838.88ZM-156.276 4051.01L-161.58 4056.31L-156.276 4061.62L-150.973 4056.31L-156.276 4051.01ZM-368.408 3697.46L-373.712 3692.15L-375.908 3694.35V3697.46H-368.408ZM-156.276 3485.32L-150.973 3480.02L-156.276 3474.72L-161.58 3480.02L-156.276 3485.32ZM126.566 3768.17L131.87 3773.47L137.173 3768.17L131.87 3762.86L126.566 3768.17ZM55.8556 3838.88L50.5523 3844.18L55.8556 3849.48L61.1589 3844.18L55.8556 3838.88ZM-14.8551 3768.17L-9.55178 3762.86L-14.8551 3757.56L-20.1584 3762.86L-14.8551 3768.17ZM-156.276 3909.59L-161.58 3904.29L-166.883 3909.59L-161.58 3914.89L-156.276 3909.59ZM-85.5658 3980.3L-80.2625 3985.6L-74.9592 3980.3L-80.2625 3975L-85.5658 3980.3ZM-297.698 3768.17L-303.001 3762.86L-308.304 3768.17L-303.001 3773.47L-297.698 3768.17ZM-156.276 3626.75L-150.973 3621.44L-156.276 3616.14L-161.58 3621.44L-156.276 3626.75ZM-226.987 3838.88L-232.29 3844.18L-226.987 3849.48L-221.684 3844.18L-226.987 3838.88ZM-85.5658 3697.46L-80.2625 3702.76L-74.9592 3697.46L-80.2625 3692.15L-85.5658 3697.46ZM-373.712 3844.18L-161.58 4056.31L-150.973 4045.71L-363.105 3833.57L-373.712 3844.18ZM-375.908 3697.46L-375.908 3838.88L-360.908 3838.88L-360.908 3697.46H-375.908ZM-161.58 3480.02L-373.712 3692.15L-363.105 3702.76L-150.973 3490.63L-161.58 3480.02ZM131.87 3762.86L-150.973 3480.02L-161.58 3490.63L121.263 3773.47L131.87 3762.86ZM61.1589 3844.18L131.87 3773.47L121.263 3762.86L50.5523 3833.57L61.1589 3844.18ZM-20.1584 3773.47L50.5523 3844.18L61.1589 3833.57L-9.55178 3762.86L-20.1584 3773.47ZM-150.973 3914.89L-9.55178 3773.47L-20.1584 3762.86L-161.58 3904.29L-150.973 3914.89ZM-80.2625 3975L-150.973 3904.29L-161.58 3914.89L-90.8691 3985.6L-80.2625 3975ZM-150.973 4056.31L-80.2625 3985.6L-90.8691 3975L-161.58 4045.71L-150.973 4056.31ZM-292.394 3773.47L-150.973 3632.05L-161.58 3621.44L-303.001 3762.86L-292.394 3773.47ZM-221.684 3833.57L-292.394 3762.86L-303.001 3773.47L-232.29 3844.18L-221.684 3833.57ZM-90.8691 3692.15L-232.29 3833.57L-221.684 3844.18L-80.2625 3702.76L-90.8691 3692.15ZM-161.58 3632.05L-90.8691 3702.76L-80.2625 3692.15L-150.973 3621.44L-161.58 3632.05Z" fill="black"/>
<path d="M1487.75 1982.72H1346.32L1629.17 1699.88L1699.88 1770.59L1629.17 1841.3L1841.3 2053.43L1770.59 2124.14L1558.46 1912.01L1487.75 1982.72Z" stroke="black" stroke-width="15"/>
<path d="M1081.16 2247.89L1075.86 2242.58L1070.55 2247.89L1075.86 2253.19L1081.16 2247.89ZM1364 2530.73L1358.7 2536.03L1364 2541.34L1369.31 2536.03L1364 2530.73ZM1293.29 2035.76V2028.26H1290.19L1287.99 2030.45L1293.29 2035.76ZM1434.71 2035.76L1440.02 2030.45L1437.82 2028.26L1434.71 2028.26V2035.76ZM1646.85 2247.89L1652.15 2253.19L1657.45 2247.89L1652.15 2242.58L1646.85 2247.89ZM1222.58 2247.89L1217.28 2242.58L1211.97 2247.89L1217.28 2253.19L1222.58 2247.89ZM1364 2106.47L1369.31 2101.16L1364 2095.86L1358.7 2101.16L1364 2106.47ZM1364 2389.31L1358.7 2394.61L1364 2399.92L1369.31 2394.61L1364 2389.31ZM1505.42 2247.89L1510.73 2253.19L1516.03 2247.89L1510.73 2242.58L1505.42 2247.89ZM1075.86 2253.19L1358.7 2536.03L1369.31 2525.43L1086.46 2242.58L1075.86 2253.19ZM1287.99 2030.45L1075.86 2242.58L1086.46 2253.19L1298.6 2041.06L1287.99 2030.45ZM1434.71 2028.26L1293.29 2028.26V2043.26L1434.71 2043.26L1434.71 2028.26ZM1652.15 2242.58L1440.02 2030.45L1429.41 2041.06L1641.54 2253.19L1652.15 2242.58ZM1369.31 2536.03L1652.15 2253.19L1641.54 2242.58L1358.7 2525.43L1369.31 2536.03ZM1227.88 2253.19L1369.31 2111.77L1358.7 2101.16L1217.28 2242.58L1227.88 2253.19ZM1369.31 2384.01L1227.88 2242.58L1217.28 2253.19L1358.7 2394.61L1369.31 2384.01ZM1500.12 2242.58L1358.7 2384.01L1369.31 2394.61L1510.73 2253.19L1500.12 2242.58ZM1358.7 2111.77L1500.12 2253.19L1510.73 2242.58L1369.31 2101.16L1358.7 2111.77Z" fill="black"/>
<path d="M833.672 2636.8L826.172 2636.8V2639.9L828.368 2642.1L833.672 2636.8ZM1045.8 2848.93L1040.5 2854.23L1045.8 2859.53L1051.11 2854.23L1045.8 2848.93ZM833.672 2495.37L828.368 2490.07L826.172 2492.27V2495.37H833.672ZM1045.8 2283.24L1051.11 2277.94L1045.8 2272.64L1040.5 2277.94L1045.8 2283.24ZM1328.65 2566.09L1333.95 2571.39L1339.25 2566.09L1333.95 2560.78L1328.65 2566.09ZM1257.94 2636.8L1252.63 2642.1L1257.94 2647.4L1263.24 2642.1L1257.94 2636.8ZM1187.22 2566.09L1192.53 2560.78L1187.22 2555.48L1181.92 2560.78L1187.22 2566.09ZM1045.8 2707.51L1040.5 2702.2L1035.2 2707.51L1040.5 2712.81L1045.8 2707.51ZM1116.51 2778.22L1121.82 2783.52L1127.12 2778.22L1121.82 2772.91L1116.51 2778.22ZM904.382 2566.09L899.079 2560.78L893.776 2566.09L899.079 2571.39L904.382 2566.09ZM1045.8 2424.66L1051.11 2419.36L1045.8 2414.06L1040.5 2419.36L1045.8 2424.66ZM975.093 2636.8L969.79 2642.1L975.093 2647.4L980.396 2642.1L975.093 2636.8ZM1116.51 2495.37L1121.82 2500.68L1127.12 2495.37L1121.82 2490.07L1116.51 2495.37ZM828.368 2642.1L1040.5 2854.23L1051.11 2843.62L838.975 2631.49L828.368 2642.1ZM826.172 2495.37L826.172 2636.8L841.172 2636.8L841.172 2495.37H826.172ZM1040.5 2277.94L828.368 2490.07L838.975 2500.68L1051.11 2288.55L1040.5 2277.94ZM1333.95 2560.78L1051.11 2277.94L1040.5 2288.55L1323.34 2571.39L1333.95 2560.78ZM1263.24 2642.1L1333.95 2571.39L1323.34 2560.78L1252.63 2631.49L1263.24 2642.1ZM1181.92 2571.39L1252.63 2642.1L1263.24 2631.49L1192.53 2560.78L1181.92 2571.39ZM1051.11 2712.81L1192.53 2571.39L1181.92 2560.78L1040.5 2702.2L1051.11 2712.81ZM1121.82 2772.91L1051.11 2702.2L1040.5 2712.81L1111.21 2783.52L1121.82 2772.91ZM1051.11 2854.23L1121.82 2783.52L1111.21 2772.91L1040.5 2843.62L1051.11 2854.23ZM909.686 2571.39L1051.11 2429.97L1040.5 2419.36L899.079 2560.78L909.686 2571.39ZM980.396 2631.49L909.686 2560.78L899.079 2571.39L969.79 2642.1L980.396 2631.49ZM1111.21 2490.07L969.79 2631.49L980.396 2642.1L1121.82 2500.68L1111.21 2490.07ZM1040.5 2429.97L1111.21 2500.68L1121.82 2490.07L1051.11 2419.36L1040.5 2429.97Z" fill="black"/>
<path d="M497.797 2831.25L780.64 3114.09L851.35 3043.38L780.64 2972.67L922.061 2831.25L851.35 2760.54L709.929 2901.96L639.218 2831.25L780.64 2689.83V2548.41L497.797 2831.25Z" stroke="black" stroke-width="15"/>
<path d="M2689.83 780.641H2548.41L2831.25 497.798L2901.96 568.509L2831.25 639.219L3043.38 851.351L2972.67 922.062L2760.54 709.93L2689.83 780.641Z" stroke="black" stroke-width="15"/>
<path d="M2283.24 1045.81L2277.94 1040.5L2272.64 1045.81L2277.94 1051.11L2283.24 1045.81ZM2566.08 1328.65L2560.78 1333.95L2566.08 1339.25L2571.39 1333.95L2566.08 1328.65ZM2495.37 833.674V826.174H2492.27L2490.07 828.37L2495.37 833.674ZM2636.8 833.674L2642.1 828.37L2639.9 826.174L2636.8 826.174L2636.8 833.674ZM2848.93 1045.81L2854.23 1051.11L2859.53 1045.81L2854.23 1040.5L2848.93 1045.81ZM2424.66 1045.81L2419.36 1040.5L2414.06 1045.81L2419.36 1051.11L2424.66 1045.81ZM2566.08 904.384L2571.39 899.081L2566.08 893.778L2560.78 899.081L2566.08 904.384ZM2566.08 1187.23L2560.78 1192.53L2566.08 1197.83L2571.39 1192.53L2566.08 1187.23ZM2707.51 1045.81L2712.81 1051.11L2718.11 1045.81L2712.81 1040.5L2707.51 1045.81ZM2277.94 1051.11L2560.78 1333.95L2571.39 1323.35L2288.55 1040.5L2277.94 1051.11ZM2490.07 828.37L2277.94 1040.5L2288.55 1051.11L2500.68 838.977L2490.07 828.37ZM2636.8 826.174L2495.37 826.174V841.174L2636.8 841.174L2636.8 826.174ZM2854.23 1040.5L2642.1 828.37L2631.49 838.977L2843.62 1051.11L2854.23 1040.5ZM2571.39 1333.95L2854.23 1051.11L2843.62 1040.5L2560.78 1323.35L2571.39 1333.95ZM2429.97 1051.11L2571.39 909.688L2560.78 899.081L2419.36 1040.5L2429.97 1051.11ZM2571.39 1181.92L2429.97 1040.5L2419.36 1051.11L2560.78 1192.53L2571.39 1181.92ZM2702.2 1040.5L2560.78 1181.92L2571.39 1192.53L2712.81 1051.11L2702.2 1040.5ZM2560.78 909.688L2702.2 1051.11L2712.81 1040.5L2571.39 899.081L2560.78 909.688Z" fill="black"/>
<path d="M2035.75 1434.71H2028.25V1437.82L2030.45 1440.02L2035.75 1434.71ZM2247.89 1646.85L2242.58 1652.15L2247.89 1657.45L2253.19 1652.15L2247.89 1646.85ZM2035.75 1293.29L2030.45 1287.99L2028.25 1290.19V1293.29H2035.75ZM2247.89 1081.16L2253.19 1075.86L2247.89 1070.55L2242.58 1075.86L2247.89 1081.16ZM2530.73 1364L2536.03 1369.31L2541.33 1364L2536.03 1358.7L2530.73 1364ZM2460.02 1434.71L2454.71 1440.02L2460.02 1445.32L2465.32 1440.02L2460.02 1434.71ZM2389.31 1364L2394.61 1358.7L2389.31 1353.4L2384 1358.7L2389.31 1364ZM2247.89 1505.43L2242.58 1500.12L2237.28 1505.43L2242.58 1510.73L2247.89 1505.43ZM2318.6 1576.14L2323.9 1581.44L2329.2 1576.14L2323.9 1570.83L2318.6 1576.14ZM2106.46 1364L2101.16 1358.7L2095.86 1364L2101.16 1369.31L2106.46 1364ZM2247.89 1222.58L2253.19 1217.28L2247.89 1211.98L2242.58 1217.28L2247.89 1222.58ZM2177.17 1434.71L2171.87 1440.02L2177.17 1445.32L2182.48 1440.02L2177.17 1434.71ZM2318.6 1293.29L2323.9 1298.6L2329.2 1293.29L2323.9 1287.99L2318.6 1293.29ZM2030.45 1440.02L2242.58 1652.15L2253.19 1641.54L2041.06 1429.41L2030.45 1440.02ZM2028.25 1293.29L2028.25 1434.71H2043.25L2043.25 1293.29H2028.25ZM2242.58 1075.86L2030.45 1287.99L2041.06 1298.6L2253.19 1086.46L2242.58 1075.86ZM2536.03 1358.7L2253.19 1075.86L2242.58 1086.46L2525.43 1369.31L2536.03 1358.7ZM2465.32 1440.02L2536.03 1369.31L2525.43 1358.7L2454.71 1429.41L2465.32 1440.02ZM2384 1369.31L2454.71 1440.02L2465.32 1429.41L2394.61 1358.7L2384 1369.31ZM2253.19 1510.73L2394.61 1369.31L2384 1358.7L2242.58 1500.12L2253.19 1510.73ZM2323.9 1570.83L2253.19 1500.12L2242.58 1510.73L2313.29 1581.44L2323.9 1570.83ZM2253.19 1652.15L2323.9 1581.44L2313.29 1570.83L2242.58 1641.54L2253.19 1652.15ZM2111.77 1369.31L2253.19 1227.89L2242.58 1217.28L2101.16 1358.7L2111.77 1369.31ZM2182.48 1429.41L2111.77 1358.7L2101.16 1369.31L2171.87 1440.02L2182.48 1429.41ZM2313.29 1287.99L2171.87 1429.41L2182.48 1440.02L2323.9 1298.6L2313.29 1287.99ZM2242.58 1227.89L2313.29 1298.6L2323.9 1287.99L2253.19 1217.28L2242.58 1227.89Z" fill="black"/>
<path d="M1699.88 1629.17L1982.72 1912.01L2053.43 1841.3L1982.72 1770.59L2124.14 1629.17L2053.43 1558.46L1912.01 1699.88L1841.3 1629.17L1982.72 1487.75V1346.33L1699.88 1629.17Z" stroke="black" stroke-width="15"/>
<path d="M3485.32 -156.275L3480.02 -161.579L3474.72 -156.275L3480.02 -150.972L3485.32 -156.275ZM3768.17 126.567L3762.86 131.871L3768.17 137.174L3773.47 131.871L3768.17 126.567ZM3697.46 -368.407V-375.907H3694.35L3692.15 -373.711L3697.46 -368.407ZM3838.88 -368.407L3844.18 -373.711L3841.98 -375.907L3838.88 -375.907V-368.407ZM4051.01 -156.275L4056.31 -150.972L4061.62 -156.275L4056.31 -161.579L4051.01 -156.275ZM3626.75 -156.275L3621.44 -161.579L3616.14 -156.275L3621.44 -150.972L3626.75 -156.275ZM3768.17 -297.697L3773.47 -303L3768.17 -308.303L3762.86 -303L3768.17 -297.697ZM3768.17 -14.854L3762.86 -9.55074L3768.17 -4.24744L3773.47 -9.55074L3768.17 -14.854ZM3909.59 -156.275L3914.89 -150.972L3920.19 -156.275L3914.89 -161.579L3909.59 -156.275ZM3480.02 -150.972L3762.86 131.871L3773.47 121.264L3490.63 -161.579L3480.02 -150.972ZM3692.15 -373.711L3480.02 -161.579L3490.63 -150.972L3702.76 -363.104L3692.15 -373.711ZM3838.88 -375.907L3697.46 -375.907V-360.907L3838.88 -360.907V-375.907ZM4056.31 -161.579L3844.18 -373.711L3833.57 -363.104L4045.71 -150.972L4056.31 -161.579ZM3773.47 131.871L4056.31 -150.972L4045.71 -161.579L3762.86 121.264L3773.47 131.871ZM3632.05 -150.972L3773.47 -292.393L3762.86 -303L3621.44 -161.579L3632.05 -150.972ZM3773.47 -20.1573L3632.05 -161.579L3621.44 -150.972L3762.86 -9.55074L3773.47 -20.1573ZM3904.28 -161.579L3762.86 -20.1573L3773.47 -9.55074L3914.89 -150.972L3904.28 -161.579ZM3762.86 -292.393L3904.28 -150.972L3914.89 -161.579L3773.47 -303L3762.86 -292.393Z" fill="black"/>
<path d="M3237.84 232.634L3230.34 232.634V235.74L3232.53 237.937L3237.84 232.634ZM3449.97 444.766L3444.66 450.069L3449.97 455.372L3455.27 450.069L3449.97 444.766ZM3237.84 91.2122L3232.53 85.9089L3230.34 88.1056V91.2122L3237.84 91.2122ZM3449.97 -120.92L3455.27 -126.223L3449.97 -131.526L3444.66 -126.223L3449.97 -120.92ZM3732.81 161.923L3738.11 167.226L3743.42 161.923L3738.11 156.62L3732.81 161.923ZM3662.1 232.634L3656.8 237.937L3662.1 243.24L3667.4 237.937L3662.1 232.634ZM3591.39 161.923L3596.69 156.62L3591.39 151.316L3586.09 156.62L3591.39 161.923ZM3449.97 303.344L3444.66 298.041L3439.36 303.344L3444.66 308.648L3449.97 303.344ZM3520.68 374.055L3525.98 379.358L3531.28 374.055L3525.98 368.752L3520.68 374.055ZM3308.55 161.923L3303.24 156.62L3297.94 161.923L3303.24 167.226L3308.55 161.923ZM3449.97 20.5015L3455.27 15.1982L3449.97 9.8949L3444.66 15.1982L3449.97 20.5015ZM3379.26 232.634L3373.95 237.937L3379.26 243.24L3384.56 237.937L3379.26 232.634ZM3520.68 91.2122L3525.98 96.5155L3531.28 91.2122L3525.98 85.9089L3520.68 91.2122ZM3232.53 237.937L3444.66 450.069L3455.27 439.462L3243.14 227.33L3232.53 237.937ZM3230.34 91.2122L3230.34 232.634L3245.34 232.634L3245.34 91.2122L3230.34 91.2122ZM3444.66 -126.223L3232.53 85.9089L3243.14 96.5155L3455.27 -115.617L3444.66 -126.223ZM3738.11 156.62L3455.27 -126.223L3444.66 -115.617L3727.51 167.226L3738.11 156.62ZM3667.4 237.937L3738.11 167.226L3727.51 156.62L3656.8 227.33L3667.4 237.937ZM3586.09 167.226L3656.8 237.937L3667.4 227.33L3596.69 156.62L3586.09 167.226ZM3455.27 308.648L3596.69 167.226L3586.09 156.62L3444.66 298.041L3455.27 308.648ZM3525.98 368.752L3455.27 298.041L3444.66 308.648L3515.38 379.358L3525.98 368.752ZM3455.27 450.069L3525.98 379.358L3515.38 368.752L3444.66 439.462L3455.27 450.069ZM3313.85 167.226L3455.27 25.8048L3444.66 15.1982L3303.24 156.62L3313.85 167.226ZM3384.56 227.33L3313.85 156.62L3303.24 167.226L3373.95 237.937L3384.56 227.33ZM3515.38 85.9089L3373.95 227.33L3384.56 237.937L3525.98 96.5155L3515.38 85.9089ZM3444.66 25.8048L3515.38 96.5155L3525.98 85.9089L3455.27 15.1982L3444.66 25.8048Z" fill="black"/>
<path d="M2901.96 427.087L3184.8 709.93L3255.51 639.219L3184.8 568.509L3326.22 427.087L3255.51 356.377L3114.09 497.798L3043.38 427.087L3184.8 285.666V144.245L2901.96 427.087Z" stroke="black" stroke-width="15"/>
<path d="M-103.243 2795.89H-244.664L38.1786 2513.05L108.889 2583.76L38.1786 2654.47L250.311 2866.61L179.6 2937.32L-32.532 2725.18L-103.243 2795.89Z" stroke="black" stroke-width="15"/>
<path d="M-509.828 3061.06L-515.131 3055.76L-520.435 3061.06L-515.131 3066.36L-509.828 3061.06ZM-226.985 3343.9L-232.289 3349.21L-226.985 3354.51L-221.682 3349.21L-226.985 3343.9ZM-297.696 2848.93V2841.43H-300.803L-302.999 2843.62L-297.696 2848.93ZM-156.275 2848.93L-150.971 2843.62L-153.168 2841.43H-156.275V2848.93ZM55.8573 3061.06L61.1606 3066.36L66.4639 3061.06L61.1606 3055.76L55.8573 3061.06ZM-368.407 3061.06L-373.71 3055.76L-379.013 3061.06L-373.71 3066.36L-368.407 3061.06ZM-226.985 2919.64L-221.682 2914.33L-226.985 2909.03L-232.289 2914.33L-226.985 2919.64ZM-226.985 3202.48L-232.289 3207.78L-226.985 3213.09L-221.682 3207.78L-226.985 3202.48ZM-85.5641 3061.06L-80.2608 3066.36L-74.9575 3061.06L-80.2608 3055.76L-85.5641 3061.06ZM-515.131 3066.36L-232.289 3349.21L-221.682 3338.6L-504.525 3055.76L-515.131 3066.36ZM-302.999 2843.62L-515.131 3055.76L-504.525 3066.36L-292.393 2854.23L-302.999 2843.62ZM-156.275 2841.43H-297.696V2856.43H-156.275V2841.43ZM61.1606 3055.76L-150.971 2843.62L-161.578 2854.23L50.554 3066.36L61.1606 3055.76ZM-221.682 3349.21L61.1606 3066.36L50.554 3055.76L-232.289 3338.6L-221.682 3349.21ZM-363.103 3066.36L-221.682 2924.94L-232.289 2914.33L-373.71 3055.76L-363.103 3066.36ZM-221.682 3197.18L-363.103 3055.76L-373.71 3066.36L-232.289 3207.78L-221.682 3197.18ZM-90.8674 3055.76L-232.289 3197.18L-221.682 3207.78L-80.2608 3066.36L-90.8674 3055.76ZM-232.289 2924.94L-90.8674 3066.36L-80.2608 3055.76L-221.682 2914.33L-232.289 2924.94Z" fill="black"/>
<path d="M1098.84 1593.81H957.416L1240.26 1310.97L1310.97 1381.68L1240.26 1452.39L1452.39 1664.52L1381.68 1735.23L1169.55 1523.1L1098.84 1593.81Z" stroke="black" stroke-width="15"/>
<path d="M692.252 1858.98L686.949 1853.67L681.645 1858.98L686.949 1864.28L692.252 1858.98ZM975.095 2141.82L969.791 2147.12L975.095 2152.43L980.398 2147.12L975.095 2141.82ZM904.384 1646.85V1639.35H901.277L899.081 1641.54L904.384 1646.85ZM1045.81 1646.85L1051.11 1641.54L1048.91 1639.35H1045.81V1646.85ZM1257.94 1858.98L1263.24 1864.28L1268.54 1858.98L1263.24 1853.67L1257.94 1858.98ZM833.673 1858.98L828.37 1853.67L823.067 1858.98L828.37 1864.28L833.673 1858.98ZM975.095 1717.56L980.398 1712.25L975.095 1706.95L969.791 1712.25L975.095 1717.56ZM975.095 2000.4L969.791 2005.7L975.095 2011.01L980.398 2005.7L975.095 2000.4ZM1116.52 1858.98L1121.82 1864.28L1127.12 1858.98L1121.82 1853.67L1116.52 1858.98ZM686.949 1864.28L969.791 2147.12L980.398 2136.52L697.555 1853.67L686.949 1864.28ZM899.081 1641.54L686.949 1853.67L697.555 1864.28L909.687 1652.15L899.081 1641.54ZM1045.81 1639.35H904.384V1654.35H1045.81V1639.35ZM1263.24 1853.67L1051.11 1641.54L1040.5 1652.15L1252.63 1864.28L1263.24 1853.67ZM980.398 2147.12L1263.24 1864.28L1252.63 1853.67L969.791 2136.52L980.398 2147.12ZM838.977 1864.28L980.398 1722.86L969.791 1712.25L828.37 1853.67L838.977 1864.28ZM980.398 1995.1L838.977 1853.67L828.37 1864.28L969.791 2005.7L980.398 1995.1ZM1111.21 1853.67L969.791 1995.1L980.398 2005.7L1121.82 1864.28L1111.21 1853.67ZM969.791 1722.86L1111.21 1864.28L1121.82 1853.67L980.398 1712.25L969.791 1722.86Z" fill="black"/>
<path d="M444.763 2247.89H437.263V2250.99L439.46 2253.19L444.763 2247.89ZM656.895 2460.02L651.592 2465.32L656.895 2470.63L662.199 2465.32L656.895 2460.02ZM444.763 2106.47L439.46 2101.16L437.263 2103.36V2106.47H444.763ZM656.895 1894.33L662.199 1889.03L656.895 1883.73L651.592 1889.03L656.895 1894.33ZM939.738 2177.18L945.041 2182.48L950.345 2177.18L945.041 2171.87L939.738 2177.18ZM869.027 2247.89L863.724 2253.19L869.027 2258.49L874.331 2253.19L869.027 2247.89ZM798.317 2177.18L803.62 2171.87L798.317 2166.57L793.013 2171.87L798.317 2177.18ZM656.895 2318.6L651.592 2313.29L646.289 2318.6L651.592 2323.9L656.895 2318.6ZM727.606 2389.31L732.909 2394.61L738.213 2389.31L732.909 2384L727.606 2389.31ZM515.474 2177.18L510.171 2171.87L504.867 2177.18L510.171 2182.48L515.474 2177.18ZM656.895 2035.75L662.199 2030.45L656.895 2025.15L651.592 2030.45L656.895 2035.75ZM586.185 2247.89L580.881 2253.19L586.185 2258.49L591.488 2253.19L586.185 2247.89ZM727.606 2106.47L732.909 2111.77L738.213 2106.47L732.909 2101.16L727.606 2106.47ZM439.46 2253.19L651.592 2465.32L662.199 2454.72L450.067 2242.58L439.46 2253.19ZM437.263 2106.47V2247.89H452.263V2106.47H437.263ZM651.592 1889.03L439.46 2101.16L450.067 2111.77L662.199 1899.64L651.592 1889.03ZM945.041 2171.87L662.199 1889.03L651.592 1899.64L934.435 2182.48L945.041 2171.87ZM874.331 2253.19L945.041 2182.48L934.435 2171.87L863.724 2242.58L874.331 2253.19ZM793.013 2182.48L863.724 2253.19L874.331 2242.58L803.62 2171.87L793.013 2182.48ZM662.199 2323.9L803.62 2182.48L793.013 2171.87L651.592 2313.29L662.199 2323.9ZM732.909 2384L662.199 2313.29L651.592 2323.9L722.303 2394.61L732.909 2384ZM662.199 2465.32L732.909 2394.61L722.303 2384L651.592 2454.72L662.199 2465.32ZM520.777 2182.48L662.199 2041.06L651.592 2030.45L510.171 2171.87L520.777 2182.48ZM591.488 2242.58L520.777 2171.87L510.171 2182.48L580.881 2253.19L591.488 2242.58ZM722.303 2101.16L580.881 2242.58L591.488 2253.19L732.909 2111.77L722.303 2101.16ZM651.592 2041.06L722.303 2111.77L732.909 2101.16L662.199 2030.45L651.592 2041.06Z" fill="black"/>
<path d="M108.889 2442.34L391.731 2725.18L462.442 2654.47L391.731 2583.76L533.153 2442.34L462.442 2371.63L321.021 2513.05L250.31 2442.34L391.731 2300.92V2159.5L108.889 2442.34Z" stroke="black" stroke-width="15"/>
<path d="M2300.92 391.731H2159.5L2442.34 108.889L2513.05 179.599L2442.34 250.31L2654.47 462.442L2583.76 533.153L2371.63 321.021L2300.92 391.731Z" stroke="black" stroke-width="15"/>
<path d="M1894.33 656.896L1889.03 651.593L1883.73 656.896L1889.03 662.2L1894.33 656.896ZM2177.18 939.739L2171.87 945.042L2177.18 950.346L2182.48 945.042L2177.18 939.739ZM2106.47 444.764V437.264H2103.36L2101.16 439.461L2106.47 444.764ZM2247.89 444.764L2253.19 439.461L2250.99 437.264L2247.89 437.264V444.764ZM2460.02 656.896L2465.32 662.2L2470.63 656.896L2465.32 651.593L2460.02 656.896ZM2035.76 656.896L2030.45 651.593L2025.15 656.896L2030.45 662.2L2035.76 656.896ZM2177.18 515.475L2182.48 510.172L2177.18 504.869L2171.87 510.172L2177.18 515.475ZM2177.18 798.318L2171.87 803.621L2177.18 808.924L2182.48 803.621L2177.18 798.318ZM2318.6 656.896L2323.9 662.2L2329.2 656.896L2323.9 651.593L2318.6 656.896ZM1889.03 662.2L2171.87 945.042L2182.48 934.436L1899.64 651.593L1889.03 662.2ZM2101.16 439.461L1889.03 651.593L1899.64 662.2L2111.77 450.068L2101.16 439.461ZM2247.89 437.264L2106.47 437.264V452.264L2247.89 452.264V437.264ZM2465.32 651.593L2253.19 439.461L2242.58 450.068L2454.72 662.2L2465.32 651.593ZM2182.48 945.042L2465.32 662.2L2454.72 651.593L2171.87 934.436L2182.48 945.042ZM2041.06 662.2L2182.48 520.778L2171.87 510.172L2030.45 651.593L2041.06 662.2ZM2182.48 793.015L2041.06 651.593L2030.45 662.2L2171.87 803.621L2182.48 793.015ZM2313.29 651.593L2171.87 793.015L2182.48 803.621L2323.9 662.2L2313.29 651.593ZM2171.87 520.778L2313.29 662.2L2323.9 651.593L2182.48 510.172L2171.87 520.778Z" fill="black"/>
<path d="M1646.85 1045.81H1639.35V1048.91L1641.54 1051.11L1646.85 1045.81ZM1858.98 1257.94L1853.67 1263.24L1858.98 1268.54L1864.28 1263.24L1858.98 1257.94ZM1646.85 904.384L1641.54 899.081L1639.35 901.277V904.384H1646.85ZM1858.98 692.252L1864.28 686.949L1858.98 681.645L1853.67 686.949L1858.98 692.252ZM2141.82 975.095L2147.12 980.398L2152.43 975.095L2147.12 969.791L2141.82 975.095ZM2071.11 1045.81L2065.81 1051.11L2071.11 1056.41L2076.41 1051.11L2071.11 1045.81ZM2000.4 975.095L2005.7 969.791L2000.4 964.488L1995.1 969.791L2000.4 975.095ZM1858.98 1116.52L1853.67 1111.21L1848.37 1116.52L1853.67 1121.82L1858.98 1116.52ZM1929.69 1187.23L1934.99 1192.53L1940.29 1187.23L1934.99 1181.92L1929.69 1187.23ZM1717.56 975.095L1712.25 969.791L1706.95 975.095L1712.25 980.398L1717.56 975.095ZM1858.98 833.673L1864.28 828.37L1858.98 823.067L1853.67 828.37L1858.98 833.673ZM1788.27 1045.81L1782.96 1051.11L1788.27 1056.41L1793.57 1051.11L1788.27 1045.81ZM1929.69 904.384L1934.99 909.687L1940.29 904.384L1934.99 899.081L1929.69 904.384ZM1641.54 1051.11L1853.67 1263.24L1864.28 1252.63L1652.15 1040.5L1641.54 1051.11ZM1639.35 904.384V1045.81H1654.35V904.384H1639.35ZM1853.67 686.949L1641.54 899.081L1652.15 909.687L1864.28 697.555L1853.67 686.949ZM2147.12 969.791L1864.28 686.949L1853.67 697.555L2136.52 980.398L2147.12 969.791ZM2076.41 1051.11L2147.12 980.398L2136.52 969.791L2065.81 1040.5L2076.41 1051.11ZM1995.1 980.398L2065.81 1051.11L2076.41 1040.5L2005.7 969.791L1995.1 980.398ZM1864.28 1121.82L2005.7 980.398L1995.1 969.791L1853.67 1111.21L1864.28 1121.82ZM1934.99 1181.92L1864.28 1111.21L1853.67 1121.82L1924.38 1192.53L1934.99 1181.92ZM1864.28 1263.24L1934.99 1192.53L1924.38 1181.92L1853.67 1252.63L1864.28 1263.24ZM1722.86 980.398L1864.28 838.977L1853.67 828.37L1712.25 969.791L1722.86 980.398ZM1793.57 1040.5L1722.86 969.791L1712.25 980.398L1782.96 1051.11L1793.57 1040.5ZM1924.38 899.081L1782.96 1040.5L1793.57 1051.11L1934.99 909.687L1924.38 899.081ZM1853.67 838.977L1924.38 909.687L1934.99 899.081L1864.28 828.37L1853.67 838.977Z" fill="black"/>
<path d="M1310.97 1240.26L1593.81 1523.1L1664.52 1452.39L1593.81 1381.68L1735.23 1240.26L1664.52 1169.55L1523.1 1310.97L1452.39 1240.26L1593.81 1098.84V957.417L1310.97 1240.26Z" stroke="black" stroke-width="15"/>
<path d="M2848.93 -156.276H2841.43V-153.169L2843.62 -150.972L2848.93 -156.276ZM3061.06 55.8564L3055.76 61.1597L3061.06 66.463L3066.36 61.1597L3061.06 55.8564ZM2848.93 -297.697L2843.62 -303L2841.43 -300.804V-297.697H2848.93ZM3061.06 -509.829L3066.36 -515.132L3061.06 -520.436L3055.76 -515.132L3061.06 -509.829ZM3343.9 -226.986L3349.21 -221.683L3354.51 -226.986L3349.21 -232.29L3343.9 -226.986ZM3273.19 -156.276L3267.89 -150.972L3273.19 -145.669L3278.49 -150.972L3273.19 -156.276ZM3202.48 -226.986L3207.78 -232.29L3202.48 -237.593L3197.18 -232.29L3202.48 -226.986ZM3061.06 -85.565L3055.76 -90.8683L3050.45 -85.565L3055.76 -80.2617L3061.06 -85.565ZM3131.77 -14.8543L3137.07 -9.551L3142.38 -14.8543L3137.07 -20.1576L3131.77 -14.8543ZM2919.64 -226.986L2914.33 -232.29L2909.03 -226.986L2914.33 -221.683L2919.64 -226.986ZM3061.06 -368.408L3066.36 -373.711L3061.06 -379.014L3055.76 -373.711L3061.06 -368.408ZM2990.35 -156.276L2985.05 -150.972L2990.35 -145.669L2995.65 -150.972L2990.35 -156.276ZM3131.77 -297.697L3137.07 -292.394L3142.38 -297.697L3137.07 -303L3131.77 -297.697ZM2843.62 -150.972L3055.76 61.1597L3066.36 50.5531L2854.23 -161.579L2843.62 -150.972ZM2841.43 -297.697V-156.276H2856.43V-297.697H2841.43ZM3055.76 -515.132L2843.62 -303L2854.23 -292.394L3066.36 -504.526L3055.76 -515.132ZM3349.21 -232.29L3066.36 -515.132L3055.76 -504.526L3338.6 -221.683L3349.21 -232.29ZM3278.49 -150.972L3349.21 -221.683L3338.6 -232.29L3267.89 -161.579L3278.49 -150.972ZM3197.18 -221.683L3267.89 -150.972L3278.49 -161.579L3207.78 -232.29L3197.18 -221.683ZM3066.36 -80.2617L3207.78 -221.683L3197.18 -232.29L3055.76 -90.8683L3066.36 -80.2617ZM3137.07 -20.1576L3066.36 -90.8683L3055.76 -80.2617L3126.47 -9.551L3137.07 -20.1576ZM3066.36 61.1597L3137.07 -9.551L3126.47 -20.1576L3055.76 50.5531L3066.36 61.1597ZM2924.94 -221.683L3066.36 -363.104L3055.76 -373.711L2914.33 -232.29L2924.94 -221.683ZM2995.65 -161.579L2924.94 -232.29L2914.33 -221.683L2985.05 -150.972L2995.65 -161.579ZM3126.47 -303L2985.05 -161.579L2995.65 -150.972L3137.07 -292.394L3126.47 -303ZM3055.76 -363.104L3126.47 -292.394L3137.07 -303L3066.36 -373.711L3055.76 -363.104Z" fill="black"/>
<path d="M2513.05 38.1787L2795.9 321.021L2866.61 250.311L2795.9 179.6L2937.32 38.1787L2866.61 -32.532L2725.18 108.889L2654.47 38.1787L2795.9 -103.243V-244.664L2513.05 38.1787Z" stroke="black" stroke-width="15"/>
<path d="M709.929 1204.9H568.508L851.351 922.062L922.061 992.772L851.351 1063.48L1063.48 1275.61L992.772 1346.33L780.64 1134.19L709.929 1204.9Z" stroke="black" stroke-width="15"/>
<path d="M303.344 1470.07L298.04 1464.77L292.737 1470.07L298.04 1475.37L303.344 1470.07ZM586.186 1752.91L580.883 1758.22L586.186 1763.52L591.49 1758.22L586.186 1752.91ZM515.476 1257.94V1250.44H512.369L510.172 1252.63L515.476 1257.94ZM656.897 1257.94L662.2 1252.63L660.004 1250.44H656.897V1257.94ZM869.029 1470.07L874.332 1475.37L879.636 1470.07L874.332 1464.77L869.029 1470.07ZM444.765 1470.07L439.462 1464.77L434.159 1470.07L439.462 1475.37L444.765 1470.07ZM586.186 1328.65L591.49 1323.34L586.186 1318.04L580.883 1323.34L586.186 1328.65ZM586.186 1611.49L580.883 1616.79L586.186 1622.1L591.49 1616.79L586.186 1611.49ZM727.608 1470.07L732.911 1475.37L738.214 1470.07L732.911 1464.77L727.608 1470.07ZM298.04 1475.37L580.883 1758.22L591.49 1747.61L308.647 1464.77L298.04 1475.37ZM510.172 1252.63L298.04 1464.77L308.647 1475.37L520.779 1263.24L510.172 1252.63ZM656.897 1250.44H515.476V1265.44H656.897V1250.44ZM874.332 1464.77L662.2 1252.63L651.594 1263.24L863.726 1475.37L874.332 1464.77ZM591.49 1758.22L874.332 1475.37L863.726 1464.77L580.883 1747.61L591.49 1758.22ZM450.068 1475.37L591.49 1333.95L580.883 1323.34L439.462 1464.77L450.068 1475.37ZM591.49 1606.19L450.068 1464.77L439.462 1475.37L580.883 1616.79L591.49 1606.19ZM722.305 1464.77L580.883 1606.19L591.49 1616.79L732.911 1475.37L722.305 1464.77ZM580.883 1333.95L722.305 1475.37L732.911 1464.77L591.49 1323.34L580.883 1333.95Z" fill="black"/>
<path d="M55.8552 1858.98H48.3552L48.3552 1862.08L50.5519 1864.28L55.8552 1858.98ZM267.987 2071.11L262.684 2076.41L267.987 2081.72L273.291 2076.41L267.987 2071.11ZM55.8552 1717.56L50.5519 1712.25L48.3552 1714.45L48.3552 1717.56H55.8552ZM267.987 1505.42L273.291 1500.12L267.987 1494.82L262.684 1500.12L267.987 1505.42ZM550.83 1788.27L556.133 1793.57L561.437 1788.27L556.133 1782.96L550.83 1788.27ZM480.119 1858.98L474.816 1864.28L480.119 1869.58L485.423 1864.28L480.119 1858.98ZM409.409 1788.27L414.712 1782.96L409.409 1777.66L404.105 1782.96L409.409 1788.27ZM267.987 1929.69L262.684 1924.39L257.381 1929.69L262.684 1934.99L267.987 1929.69ZM338.698 2000.4L344.001 2005.7L349.305 2000.4L344.001 1995.1L338.698 2000.4ZM126.566 1788.27L121.263 1782.96L115.959 1788.27L121.263 1793.57L126.566 1788.27ZM267.987 1646.85L273.291 1641.54L267.987 1636.24L262.684 1641.54L267.987 1646.85ZM197.277 1858.98L191.973 1864.28L197.277 1869.58L202.58 1864.28L197.277 1858.98ZM338.698 1717.56L344.001 1722.86L349.305 1717.56L344.001 1712.25L338.698 1717.56ZM50.5519 1864.28L262.684 2076.41L273.291 2065.81L61.1585 1853.67L50.5519 1864.28ZM48.3552 1717.56V1858.98H63.3552V1717.56H48.3552ZM262.684 1500.12L50.5519 1712.25L61.1585 1722.86L273.291 1510.73L262.684 1500.12ZM556.133 1782.96L273.291 1500.12L262.684 1510.73L545.527 1793.57L556.133 1782.96ZM485.423 1864.28L556.133 1793.57L545.527 1782.96L474.816 1853.67L485.423 1864.28ZM404.105 1793.57L474.816 1864.28L485.423 1853.67L414.712 1782.96L404.105 1793.57ZM273.291 1934.99L414.712 1793.57L404.105 1782.96L262.684 1924.39L273.291 1934.99ZM344.001 1995.1L273.291 1924.39L262.684 1934.99L333.395 2005.7L344.001 1995.1ZM273.291 2076.41L344.001 2005.7L333.395 1995.1L262.684 2065.81L273.291 2076.41ZM131.869 1793.57L273.291 1652.15L262.684 1641.54L121.263 1782.96L131.869 1793.57ZM202.58 1853.67L131.869 1782.96L121.263 1793.57L191.973 1864.28L202.58 1853.67ZM333.395 1712.25L191.973 1853.67L202.58 1864.28L344.001 1722.86L333.395 1712.25ZM262.684 1652.15L333.395 1722.86L344.001 1712.25L273.291 1641.54L262.684 1652.15Z" fill="black"/>
<path d="M-280.02 2053.43L2.82318 2336.28L73.5339 2265.56L2.82318 2194.85L144.245 2053.43L73.5339 1982.72L-67.8875 2124.14L-138.598 2053.43L2.82318 1912.01V1770.59L-280.02 2053.43Z" stroke="black" stroke-width="15"/>
<path d="M1912.01 2.82324H1770.59L2053.43 -280.019L2124.14 -209.309L2053.43 -138.598L2265.56 73.5339L2194.85 144.245L1982.72 -67.8874L1912.01 2.82324Z" stroke="black" stroke-width="15"/>
<path d="M1505.43 267.988L1500.12 262.685L1494.82 267.988L1500.12 273.292L1505.43 267.988ZM1788.27 550.831L1782.97 556.134L1788.27 561.438L1793.57 556.134L1788.27 550.831ZM1717.56 55.8563V48.3563H1714.45L1712.25 50.5529L1717.56 55.8563ZM1858.98 55.8563L1864.28 50.5529L1862.09 48.3563L1858.98 48.3563V55.8563ZM2071.11 267.988L2076.41 273.292L2081.72 267.988L2076.41 262.685L2071.11 267.988ZM1646.85 267.988L1641.54 262.685L1636.24 267.988L1641.54 273.292L1646.85 267.988ZM1788.27 126.567L1793.57 121.264L1788.27 115.96L1782.97 121.264L1788.27 126.567ZM1788.27 409.41L1782.97 414.713L1788.27 420.016L1793.57 414.713L1788.27 409.41ZM1929.69 267.988L1934.99 273.292L1940.3 267.988L1934.99 262.685L1929.69 267.988ZM1500.12 273.292L1782.97 556.134L1793.57 545.528L1510.73 262.685L1500.12 273.292ZM1712.25 50.5529L1500.12 262.685L1510.73 273.292L1722.86 61.1596L1712.25 50.5529ZM1858.98 48.3563L1717.56 48.3563V63.3563L1858.98 63.3563V48.3563ZM2076.41 262.685L1864.28 50.5529L1853.68 61.1596L2065.81 273.292L2076.41 262.685ZM1793.57 556.134L2076.41 273.292L2065.81 262.685L1782.97 545.528L1793.57 556.134ZM1652.15 273.292L1793.57 131.87L1782.97 121.264L1641.54 262.685L1652.15 273.292ZM1793.57 404.106L1652.15 262.685L1641.54 273.292L1782.97 414.713L1793.57 404.106ZM1924.39 262.685L1782.97 404.106L1793.57 414.713L1934.99 273.292L1924.39 262.685ZM1782.97 131.87L1924.39 273.292L1934.99 262.685L1793.57 121.264L1782.97 131.87Z" fill="black"/>
<path d="M1257.94 656.897H1250.44V660.003L1252.63 662.2L1257.94 656.897ZM1470.07 869.029L1464.77 874.332L1470.07 879.635L1475.37 874.332L1470.07 869.029ZM1257.94 515.475L1252.63 510.172L1250.44 512.369V515.475H1257.94ZM1470.07 303.343L1475.37 298.04L1470.07 292.737L1464.77 298.04L1470.07 303.343ZM1752.91 586.186L1758.22 591.489L1763.52 586.186L1758.22 580.883L1752.91 586.186ZM1682.2 656.897L1676.9 662.2L1682.2 667.503L1687.5 662.2L1682.2 656.897ZM1611.49 586.186L1616.79 580.883L1611.49 575.579L1606.19 580.883L1611.49 586.186ZM1470.07 727.607L1464.77 722.304L1459.46 727.607L1464.77 732.911L1470.07 727.607ZM1540.78 798.318L1546.08 803.621L1551.39 798.318L1546.08 793.015L1540.78 798.318ZM1328.65 586.186L1323.34 580.883L1318.04 586.186L1323.34 591.489L1328.65 586.186ZM1470.07 444.765L1475.37 439.461L1470.07 434.158L1464.77 439.461L1470.07 444.765ZM1399.36 656.897L1394.06 662.2L1399.36 667.503L1404.66 662.2L1399.36 656.897ZM1540.78 515.475L1546.08 520.779L1551.39 515.475L1546.08 510.172L1540.78 515.475ZM1252.63 662.2L1464.77 874.332L1475.37 863.725L1263.24 651.593L1252.63 662.2ZM1250.44 515.475V656.897H1265.44V515.475H1250.44ZM1464.77 298.04L1252.63 510.172L1263.24 520.779L1475.37 308.647L1464.77 298.04ZM1758.22 580.883L1475.37 298.04L1464.77 308.647L1747.61 591.489L1758.22 580.883ZM1687.5 662.2L1758.22 591.489L1747.61 580.883L1676.9 651.593L1687.5 662.2ZM1606.19 591.489L1676.9 662.2L1687.5 651.593L1616.79 580.883L1606.19 591.489ZM1475.37 732.911L1616.79 591.489L1606.19 580.883L1464.77 722.304L1475.37 732.911ZM1546.08 793.015L1475.37 722.304L1464.77 732.911L1535.48 803.621L1546.08 793.015ZM1475.37 874.332L1546.08 803.621L1535.48 793.015L1464.77 863.725L1475.37 874.332ZM1333.95 591.489L1475.37 450.068L1464.77 439.461L1323.34 580.883L1333.95 591.489ZM1404.66 651.593L1333.95 580.883L1323.34 591.489L1394.06 662.2L1404.66 651.593ZM1535.48 510.172L1394.06 651.593L1404.66 662.2L1546.08 520.779L1535.48 510.172ZM1464.77 450.068L1535.48 520.779L1546.08 510.172L1475.37 439.461L1464.77 450.068Z" fill="black"/>
<path d="M922.062 851.351L1204.91 1134.19L1275.62 1063.48L1204.91 992.772L1346.33 851.351L1275.62 780.64L1134.19 922.062L1063.48 851.351L1204.91 709.93V568.508L922.062 851.351Z" stroke="black" stroke-width="15"/>
<path d="M321.019 815.996H179.598L462.44 533.153L533.151 603.864L462.44 674.574L674.572 886.706L603.862 957.417L391.73 745.285L321.019 815.996Z" stroke="black" stroke-width="15"/>
<path d="M-85.5664 1081.16L-90.8697 1075.86L-96.173 1081.16L-90.8697 1086.46L-85.5664 1081.16ZM197.276 1364L191.973 1369.31L197.276 1374.61L202.58 1369.31L197.276 1364ZM126.566 869.029V861.529H123.459L121.262 863.725L126.566 869.029ZM267.987 869.029L273.29 863.725L271.094 861.529L267.987 861.529V869.029ZM480.119 1081.16L485.422 1086.46L490.726 1081.16L485.422 1075.86L480.119 1081.16ZM55.8549 1081.16L50.5516 1075.86L45.2483 1081.16L50.5516 1086.46L55.8549 1081.16ZM197.276 939.739L202.58 934.436L197.276 929.133L191.973 934.436L197.276 939.739ZM197.276 1222.58L191.973 1227.89L197.276 1233.19L202.58 1227.89L197.276 1222.58ZM338.698 1081.16L344.001 1086.46L349.304 1081.16L344.001 1075.86L338.698 1081.16ZM-90.8697 1086.46L191.973 1369.31L202.58 1358.7L-80.2631 1075.86L-90.8697 1086.46ZM121.262 863.725L-90.8697 1075.86L-80.2631 1086.46L131.869 874.332L121.262 863.725ZM267.987 861.529L126.566 861.529V876.529L267.987 876.529V861.529ZM485.422 1075.86L273.29 863.725L262.684 874.332L474.816 1086.46L485.422 1075.86ZM202.58 1369.31L485.422 1086.46L474.816 1075.86L191.973 1358.7L202.58 1369.31ZM61.1582 1086.46L202.58 945.043L191.973 934.436L50.5516 1075.86L61.1582 1086.46ZM202.58 1217.28L61.1582 1075.86L50.5516 1086.46L191.973 1227.89L202.58 1217.28ZM333.394 1075.86L191.973 1217.28L202.58 1227.89L344.001 1086.46L333.394 1075.86ZM191.973 945.043L333.394 1086.46L344.001 1075.86L202.58 934.436L191.973 945.043Z" fill="black"/>
<path d="M-333.055 1470.07H-340.555V1473.18L-338.358 1475.37L-333.055 1470.07ZM-120.923 1682.2L-126.226 1687.5L-120.923 1692.81L-115.62 1687.5L-120.923 1682.2ZM-333.055 1328.65L-338.358 1323.34L-340.555 1325.54V1328.65H-333.055ZM-120.923 1116.52L-115.62 1111.21L-120.923 1105.91L-126.226 1111.21L-120.923 1116.52ZM161.92 1399.36L167.223 1404.66L172.526 1399.36L167.223 1394.06L161.92 1399.36ZM91.2091 1470.07L85.9058 1475.37L91.2091 1480.68L96.5124 1475.37L91.2091 1470.07ZM20.4984 1399.36L25.8017 1394.06L20.4984 1388.75L15.1951 1394.06L20.4984 1399.36ZM-120.923 1540.78L-126.226 1535.48L-131.53 1540.78L-126.226 1546.08L-120.923 1540.78ZM-50.2122 1611.49L-44.9089 1616.79L-39.6056 1611.49L-44.9089 1606.19L-50.2122 1611.49ZM-262.344 1399.36L-267.648 1394.06L-272.951 1399.36L-267.648 1404.66L-262.344 1399.36ZM-120.923 1257.94L-115.62 1252.63L-120.923 1247.33L-126.226 1252.63L-120.923 1257.94ZM-191.634 1470.07L-196.937 1475.37L-191.634 1480.68L-186.33 1475.37L-191.634 1470.07ZM-50.2122 1328.65L-44.9089 1333.95L-39.6056 1328.65L-44.9089 1323.34L-50.2122 1328.65ZM-338.358 1475.37L-126.226 1687.5L-115.62 1676.9L-327.752 1464.77L-338.358 1475.37ZM-340.555 1328.65V1470.07H-325.555V1328.65H-340.555ZM-126.226 1111.21L-338.358 1323.34L-327.752 1333.95L-115.62 1121.82L-126.226 1111.21ZM167.223 1394.06L-115.62 1111.21L-126.226 1121.82L156.616 1404.66L167.223 1394.06ZM96.5124 1475.37L167.223 1404.66L156.616 1394.06L85.9058 1464.77L96.5124 1475.37ZM15.1951 1404.66L85.9058 1475.37L96.5124 1464.77L25.8017 1394.06L15.1951 1404.66ZM-115.62 1546.08L25.8017 1404.66L15.1951 1394.06L-126.226 1535.48L-115.62 1546.08ZM-44.9089 1606.19L-115.62 1535.48L-126.226 1546.08L-55.5155 1616.79L-44.9089 1606.19ZM-115.62 1687.5L-44.9089 1616.79L-55.5155 1606.19L-126.226 1676.9L-115.62 1687.5ZM-257.041 1404.66L-115.62 1263.24L-126.226 1252.63L-267.648 1394.06L-257.041 1404.66ZM-186.33 1464.77L-257.041 1394.06L-267.648 1404.66L-196.937 1475.37L-186.33 1464.77ZM-55.5155 1323.34L-196.937 1464.77L-186.33 1475.37L-44.9089 1333.95L-55.5155 1323.34ZM-126.226 1263.24L-55.5155 1333.95L-44.9089 1323.34L-115.62 1252.63L-126.226 1263.24Z" fill="black"/>
<path d="M1116.52 -120.921L1111.21 -126.224L1105.91 -120.921L1111.21 -115.618L1116.52 -120.921ZM1399.36 161.922L1394.06 167.225L1399.36 172.528L1404.66 167.225L1399.36 161.922ZM1328.65 -333.053V-340.553H1325.54L1323.34 -338.356L1328.65 -333.053ZM1470.07 -333.053L1475.37 -338.356L1473.18 -340.553L1470.07 -340.553V-333.053ZM1682.2 -120.921L1687.5 -115.618L1692.81 -120.921L1687.5 -126.224L1682.2 -120.921ZM1257.94 -120.921L1252.63 -126.224L1247.33 -120.921L1252.63 -115.618L1257.94 -120.921ZM1399.36 -262.342L1404.66 -267.646L1399.36 -272.949L1394.06 -267.646L1399.36 -262.342ZM1399.36 20.5005L1394.06 25.8038L1399.36 31.1071L1404.66 25.8038L1399.36 20.5005ZM1540.78 -120.921L1546.08 -115.618L1551.39 -120.921L1546.08 -126.224L1540.78 -120.921ZM1111.21 -115.618L1394.06 167.225L1404.66 156.619L1121.82 -126.224L1111.21 -115.618ZM1323.34 -338.356L1111.21 -126.224L1121.82 -115.618L1333.95 -327.75L1323.34 -338.356ZM1470.07 -340.553L1328.65 -340.553V-325.553L1470.07 -325.553V-340.553ZM1687.5 -126.224L1475.37 -338.356L1464.77 -327.75L1676.9 -115.618L1687.5 -126.224ZM1404.66 167.225L1687.5 -115.618L1676.9 -126.224L1394.06 156.619L1404.66 167.225ZM1263.24 -115.618L1404.66 -257.039L1394.06 -267.646L1252.63 -126.224L1263.24 -115.618ZM1404.66 15.1972L1263.24 -126.224L1252.63 -115.618L1394.06 25.8038L1404.66 15.1972ZM1535.48 -126.224L1394.06 15.1972L1404.66 25.8038L1546.08 -115.618L1535.48 -126.224ZM1394.06 -257.039L1535.48 -115.618L1546.08 -126.224L1404.66 -267.646L1394.06 -257.039Z" fill="black"/>
<path d="M869.027 267.988H861.527V271.095L863.724 273.291L869.027 267.988ZM1081.16 480.12L1075.86 485.423L1081.16 490.727L1086.46 485.423L1081.16 480.12ZM869.027 126.567L863.724 121.263L861.527 123.46V126.567H869.027ZM1081.16 -85.5654L1086.46 -90.8687L1081.16 -96.172L1075.86 -90.8687L1081.16 -85.5654ZM1364 197.277L1369.31 202.581L1374.61 197.277L1369.31 191.974L1364 197.277ZM1293.29 267.988L1287.99 273.291L1293.29 278.595L1298.59 273.291L1293.29 267.988ZM1222.58 197.277L1227.88 191.974L1222.58 186.671L1217.28 191.974L1222.58 197.277ZM1081.16 338.699L1075.86 333.395L1070.55 338.699L1075.86 344.002L1081.16 338.699ZM1151.87 409.409L1157.17 414.713L1162.48 409.409L1157.17 404.106L1151.87 409.409ZM939.738 197.277L934.434 191.974L929.131 197.277L934.434 202.581L939.738 197.277ZM1081.16 55.856L1086.46 50.5527L1081.16 45.2494L1075.86 50.5527L1081.16 55.856ZM1010.45 267.988L1005.15 273.291L1010.45 278.595L1015.75 273.291L1010.45 267.988ZM1151.87 126.567L1157.17 131.87L1162.48 126.567L1157.17 121.263L1151.87 126.567ZM863.724 273.291L1075.86 485.423L1086.46 474.817L874.33 262.685L863.724 273.291ZM861.527 126.567V267.988H876.527V126.567H861.527ZM1075.86 -90.8687L863.724 121.263L874.33 131.87L1086.46 -80.2621L1075.86 -90.8687ZM1369.31 191.974L1086.46 -90.8687L1075.86 -80.2621L1358.7 202.581L1369.31 191.974ZM1298.59 273.291L1369.31 202.581L1358.7 191.974L1287.99 262.685L1298.59 273.291ZM1217.28 202.581L1287.99 273.291L1298.59 262.685L1227.88 191.974L1217.28 202.581ZM1086.46 344.002L1227.88 202.581L1217.28 191.974L1075.86 333.395L1086.46 344.002ZM1157.17 404.106L1086.46 333.395L1075.86 344.002L1146.57 414.713L1157.17 404.106ZM1086.46 485.423L1157.17 414.713L1146.57 404.106L1075.86 474.817L1086.46 485.423ZM945.041 202.581L1086.46 61.1593L1075.86 50.5527L934.434 191.974L945.041 202.581ZM1015.75 262.685L945.041 191.974L934.434 202.581L1005.15 273.291L1015.75 262.685ZM1146.57 121.263L1005.15 262.685L1015.75 273.291L1157.17 131.87L1146.57 121.263ZM1075.86 61.1593L1146.57 131.87L1157.17 121.263L1086.46 50.5527L1075.86 61.1593Z" fill="black"/>
<path d="M533.152 462.442L815.995 745.285L886.706 674.574L815.995 603.864L957.416 462.442L886.706 391.732L745.284 533.153L674.574 462.442L815.995 321.021V179.6L533.152 462.442Z" stroke="black" stroke-width="15"/>
<path d="M-67.8892 427.087H-209.311L73.5322 144.244L144.243 214.955L73.5322 285.666L285.664 497.798L214.954 568.508L2.82148 356.376L-67.8892 427.087Z" stroke="black" stroke-width="15"/>
<path d="M-474.475 692.252L-479.778 686.949L-485.081 692.252L-479.778 697.555L-474.475 692.252ZM-191.632 975.095L-196.935 980.398L-191.632 985.701L-186.329 980.398L-191.632 975.095ZM-262.343 480.12V472.62H-265.449L-267.646 474.817L-262.343 480.12ZM-120.921 480.12L-115.618 474.817L-117.815 472.62L-120.921 472.62V480.12ZM91.2108 692.252L96.5141 697.555L101.817 692.252L96.5141 686.949L91.2108 692.252ZM-333.053 692.252L-338.357 686.949L-343.66 692.252L-338.357 697.555L-333.053 692.252ZM-191.632 550.831L-186.329 545.527L-191.632 540.224L-196.935 545.527L-191.632 550.831ZM-191.632 833.673L-196.935 838.977L-191.632 844.28L-186.329 838.977L-191.632 833.673ZM-50.2105 692.252L-44.9072 697.555L-39.6039 692.252L-44.9072 686.949L-50.2105 692.252ZM-479.778 697.555L-196.935 980.398L-186.329 969.791L-469.171 686.949L-479.778 697.555ZM-267.646 474.817L-479.778 686.949L-469.171 697.555L-257.039 485.423L-267.646 474.817ZM-120.921 472.62L-262.343 472.62V487.62L-120.921 487.62V472.62ZM96.5141 686.949L-115.618 474.817L-126.225 485.423L85.9075 697.555L96.5141 686.949ZM-186.329 980.398L96.5141 697.555L85.9075 686.949L-196.935 969.791L-186.329 980.398ZM-327.75 697.555L-186.329 556.134L-196.935 545.527L-338.357 686.949L-327.75 697.555ZM-186.329 828.37L-327.75 686.949L-338.357 697.555L-196.935 838.977L-186.329 828.37ZM-55.5138 686.949L-196.935 828.37L-186.329 838.977L-44.9072 697.555L-55.5138 686.949ZM-196.935 556.134L-55.5138 697.555L-44.9072 686.949L-186.329 545.527L-196.935 556.134Z" fill="black"/>
<path d="M480.119 -120.92H472.619V-117.814L474.816 -115.617L480.119 -120.92ZM692.251 91.2118L686.948 96.5151L692.251 101.818L697.554 96.5151L692.251 91.2118ZM480.119 -262.342L474.816 -267.645L472.619 -265.448V-262.342H480.119ZM692.251 -474.474L697.554 -479.777L692.251 -485.08L686.948 -479.777L692.251 -474.474ZM975.094 -191.631L980.397 -186.328L985.7 -191.631L980.397 -196.934L975.094 -191.631ZM904.383 -120.92L899.08 -115.617L904.383 -110.314L909.686 -115.617L904.383 -120.92ZM833.672 -191.631L838.976 -196.934L833.672 -202.237L828.369 -196.934L833.672 -191.631ZM692.251 -50.2095L686.948 -55.5128L681.644 -50.2095L686.948 -44.9062L692.251 -50.2095ZM762.962 20.5012L768.265 25.8045L773.568 20.5012L768.265 15.1979L762.962 20.5012ZM550.83 -191.631L545.526 -196.934L540.223 -191.631L545.526 -186.328L550.83 -191.631ZM692.251 -333.052L697.554 -338.356L692.251 -343.659L686.948 -338.356L692.251 -333.052ZM621.54 -120.92L616.237 -115.617L621.54 -110.314L626.844 -115.617L621.54 -120.92ZM762.962 -262.342L768.265 -257.038L773.568 -262.342L768.265 -267.645L762.962 -262.342ZM474.816 -115.617L686.948 96.5151L697.554 85.9085L485.422 -126.223L474.816 -115.617ZM472.619 -262.342V-120.92H487.619V-262.342H472.619ZM686.948 -479.777L474.816 -267.645L485.422 -257.038L697.554 -469.17L686.948 -479.777ZM980.397 -196.934L697.554 -479.777L686.948 -469.17L969.79 -186.328L980.397 -196.934ZM909.686 -115.617L980.397 -186.328L969.79 -196.934L899.08 -126.223L909.686 -115.617ZM828.369 -186.328L899.08 -115.617L909.686 -126.223L838.976 -196.934L828.369 -186.328ZM697.554 -44.9062L838.976 -186.328L828.369 -196.934L686.948 -55.5128L697.554 -44.9062ZM768.265 15.1979L697.554 -55.5128L686.948 -44.9062L757.658 25.8045L768.265 15.1979ZM697.554 96.5151L768.265 25.8045L757.658 15.1979L686.948 85.9085L697.554 96.5151ZM556.133 -186.328L697.554 -327.749L686.948 -338.356L545.526 -196.934L556.133 -186.328ZM626.844 -126.223L556.133 -196.934L545.526 -186.328L616.237 -115.617L626.844 -126.223ZM757.658 -267.645L616.237 -126.223L626.844 -115.617L768.265 -257.038L757.658 -267.645ZM686.948 -327.749L757.658 -257.038L768.265 -267.645L697.554 -338.356L686.948 -327.749Z" fill="black"/>
<path d="M144.244 73.5342L427.087 356.377L497.798 285.666L427.087 214.956L568.508 73.5342L497.798 2.8235L356.376 144.245L285.665 73.5342L427.087 -67.8872V-209.309L144.244 73.5342Z" stroke="black" stroke-width="15"/>
</g>
<defs>
<clipPath id="clip0_933_1613">
<rect width="4000" height="4000" fill="white"/>
</clipPath>
</defs>
</svg>
