<svg width="1920" height="1080" viewBox="0 0 1920 1080" fill="none" xmlns="http://www.w3.org/2000/svg">
<rect width="1920" height="1080" fill="black"/>
<path fill-rule="evenodd" clip-rule="evenodd" d="M972.5 640V440H1122.5L1172.5 490V640H972.5ZM1122.5 490H1022.5V590H1122.5V490Z" fill="white"/>
<path fill-rule="evenodd" clip-rule="evenodd" d="M747.5 640V490L797.5 440H947.5V640H897.5V590H797.5V640H747.5ZM897.5 490H797.5V540H897.5V490Z" fill="white"/>
<path d="M560 440V640H610V590H710V540H610V490H710L760 440H560Z" fill="white"/>
<path d="M1308 490V638H1262V490V488H1260H1210.83L1164.83 442H1358V488H1310H1308V490Z" stroke="white" stroke-width="4"/>
</svg>
